# Blender 5.1.1
# www.blender.org
mtllib floor.mtl
o Plane
v -1.000000 0.000000 1.000000
v 1.000000 0.000000 1.000000
v -1.000000 0.000000 -1.000000
v 1.000000 0.000000 -1.000000
v -0.818182 0.000000 1.000000
v -0.636364 0.000000 1.000000
v -0.454545 0.000000 1.000000
v -0.272727 0.000000 1.000000
v -0.090909 0.000000 1.000000
v 0.090909 0.000000 1.000000
v 0.272727 0.000000 1.000000
v 0.454545 0.000000 1.000000
v 0.636364 0.000000 1.000000
v 0.818182 0.000000 1.000000
v 0.818182 0.000000 -1.000000
v 0.636364 0.000000 -1.000000
v 0.454545 0.000000 -1.000000
v 0.272727 0.000000 -1.000000
v 0.090909 0.000000 -1.000000
v -0.090909 0.000000 -1.000000
v -0.272727 0.000000 -1.000000
v -0.454545 0.000000 -1.000000
v -0.636364 0.000000 -1.000000
v -0.818182 0.000000 -1.000000
v -1.000000 0.000000 -0.818182
v -1.000000 0.000000 -0.636364
v -1.000000 0.000000 -0.454545
v -1.000000 0.000000 -0.272727
v -1.000000 0.000000 -0.090909
v -1.000000 0.000000 0.090909
v -1.000000 0.000000 0.272727
v -1.000000 0.000000 0.454545
v -1.000000 0.000000 0.636364
v -1.000000 0.000000 0.818182
v 1.000000 0.000000 0.818182
v 1.000000 0.000000 0.636364
v 1.000000 0.000000 0.454545
v 1.000000 0.000000 0.272727
v 1.000000 0.000000 0.090909
v 1.000000 0.000000 -0.090909
v 1.000000 0.000000 -0.272727
v 1.000000 0.000000 -0.454545
v 1.000000 0.000000 -0.636364
v 1.000000 0.000000 -0.818182
v -0.818182 0.000000 0.818182
v -0.818182 0.000000 0.636364
v -0.818182 0.000000 0.454545
v -0.818182 0.000000 0.272727
v -0.818182 0.000000 0.090909
v -0.818182 0.000000 -0.090909
v -0.818182 0.000000 -0.272727
v -0.818182 0.000000 -0.454545
v -0.818182 0.000000 -0.636364
v -0.818182 0.000000 -0.818182
v -0.636364 0.000000 0.818182
v -0.636364 0.000000 0.636364
v -0.636364 0.000000 0.454545
v -0.636364 0.000000 0.272727
v -0.636364 0.000000 0.090909
v -0.636364 0.000000 -0.090909
v -0.636364 0.000000 -0.272727
v -0.636364 0.000000 -0.454545
v -0.636364 0.000000 -0.636364
v -0.636364 0.000000 -0.818182
v -0.454545 0.000000 0.818182
v -0.454545 0.000000 0.636364
v -0.454545 0.000000 0.454545
v -0.454545 0.000000 0.272727
v -0.454545 0.000000 0.090909
v -0.454545 0.000000 -0.090909
v -0.454545 0.000000 -0.272727
v -0.454545 0.000000 -0.454545
v -0.454545 0.000000 -0.636364
v -0.454545 0.000000 -0.818182
v -0.272727 0.000000 0.818182
v -0.272727 0.000000 0.636364
v -0.272727 0.000000 0.454545
v -0.272727 0.000000 0.272727
v -0.272727 0.000000 0.090909
v -0.272727 0.000000 -0.090909
v -0.272727 0.000000 -0.272727
v -0.272727 0.000000 -0.454545
v -0.272727 0.000000 -0.636364
v -0.272727 0.000000 -0.818182
v -0.090909 0.000000 0.818182
v -0.090909 0.000000 0.636364
v -0.090909 0.000000 0.454545
v -0.090909 0.000000 0.272727
v -0.090909 0.000000 0.090909
v -0.090909 0.000000 -0.090909
v -0.090909 0.000000 -0.272727
v -0.090909 0.000000 -0.454545
v -0.090909 0.000000 -0.636364
v -0.090909 0.000000 -0.818182
v 0.090909 0.000000 0.818182
v 0.090909 0.000000 0.636364
v 0.090909 0.000000 0.454545
v 0.090909 0.000000 0.272727
v 0.090909 0.000000 0.090909
v 0.090909 0.000000 -0.090909
v 0.090909 0.000000 -0.272727
v 0.090909 0.000000 -0.454545
v 0.090909 0.000000 -0.636364
v 0.090909 0.000000 -0.818182
v 0.272727 0.000000 0.818182
v 0.272727 0.000000 0.636364
v 0.272727 0.000000 0.454545
v 0.272727 0.000000 0.272727
v 0.272727 0.000000 0.090909
v 0.272727 0.000000 -0.090909
v 0.272727 0.000000 -0.272727
v 0.272727 0.000000 -0.454545
v 0.272727 0.000000 -0.636364
v 0.272727 0.000000 -0.818182
v 0.454545 0.000000 0.818182
v 0.454545 0.000000 0.636364
v 0.454545 0.000000 0.454545
v 0.454545 0.000000 0.272727
v 0.454545 0.000000 0.090909
v 0.454545 0.000000 -0.090909
v 0.454545 0.000000 -0.272727
v 0.454545 0.000000 -0.454545
v 0.454545 0.000000 -0.636364
v 0.454545 0.000000 -0.818182
v 0.636364 0.000000 0.818182
v 0.636364 0.000000 0.636364
v 0.636364 0.000000 0.454545
v 0.636364 0.000000 0.272727
v 0.636364 0.000000 0.090909
v 0.636364 0.000000 -0.090909
v 0.636364 0.000000 -0.272727
v 0.636364 0.000000 -0.454545
v 0.636364 0.000000 -0.636364
v 0.636364 0.000000 -0.818182
v 0.818182 0.000000 0.818182
v 0.818182 0.000000 0.636364
v 0.818182 0.000000 0.454545
v 0.818182 0.000000 0.272727
v 0.818182 0.000000 0.090909
v 0.818182 0.000000 -0.090909
v 0.818182 0.000000 -0.272727
v 0.818182 0.000000 -0.454545
v 0.818182 0.000000 -0.636364
v 0.818182 0.000000 -0.818182
v 0.819420 0.000000 -0.819420
v 0.998762 0.000000 -0.819420
v 0.998762 0.000000 -0.998762
v 0.819420 0.000000 -0.998762
v -0.998762 0.000000 -0.819420
v -0.819420 0.000000 -0.819420
v -0.819420 0.000000 -0.998762
v -0.998762 0.000000 -0.998762
v -0.816943 0.000000 -0.819420
v -0.637602 0.000000 -0.819420
v -0.637602 0.000000 -0.998762
v -0.816943 0.000000 -0.998762
v -0.635125 0.000000 -0.819420
v -0.455784 0.000000 -0.819420
v -0.455784 0.000000 -0.998762
v -0.635125 0.000000 -0.998762
v -0.453307 0.000000 -0.819420
v -0.273966 0.000000 -0.819420
v -0.273966 0.000000 -0.998762
v -0.453307 0.000000 -0.998762
v -0.271489 0.000000 -0.819420
v -0.092148 0.000000 -0.819420
v -0.092148 0.000000 -0.998762
v -0.271489 0.000000 -0.998762
v -0.089671 0.000000 -0.819420
v 0.089671 0.000000 -0.819420
v 0.089671 0.000000 -0.998762
v -0.089671 0.000000 -0.998762
v 0.092147 0.000000 -0.819420
v 0.271489 0.000000 -0.819420
v 0.271489 0.000000 -0.998762
v 0.092147 0.000000 -0.998762
v 0.273966 0.000000 -0.819420
v 0.453307 0.000000 -0.819420
v 0.453307 0.000000 -0.998762
v 0.273966 0.000000 -0.998762
v 0.455784 0.000000 -0.819420
v 0.635125 0.000000 -0.819420
v 0.635125 0.000000 -0.998762
v 0.455784 0.000000 -0.998762
v 0.637602 0.000000 -0.819420
v 0.816943 0.000000 -0.819420
v 0.816943 0.000000 -0.998762
v 0.637602 0.000000 -0.998762
v 0.637602 0.000000 0.998762
v 0.816943 0.000000 0.998762
v 0.816943 0.000000 0.819420
v 0.637602 0.000000 0.819420
v 0.637602 0.000000 0.816943
v 0.816943 0.000000 0.816943
v 0.816943 0.000000 0.637602
v 0.637602 0.000000 0.637602
v 0.637602 0.000000 0.635125
v 0.816943 0.000000 0.635125
v 0.816943 0.000000 0.455784
v 0.637602 0.000000 0.455784
v 0.637602 0.000000 0.453307
v 0.816943 0.000000 0.453307
v 0.816943 0.000000 0.273966
v 0.637602 0.000000 0.273966
v 0.637602 0.000000 0.271489
v 0.816943 0.000000 0.271489
v 0.816943 0.000000 0.092147
v 0.637602 0.000000 0.092147
v 0.637602 0.000000 0.089671
v 0.816943 0.000000 0.089671
v 0.816943 0.000000 -0.089671
v 0.637602 0.000000 -0.089671
v 0.637602 0.000000 -0.092148
v 0.816943 0.000000 -0.092148
v 0.816943 0.000000 -0.271489
v 0.637602 0.000000 -0.271489
v 0.637602 0.000000 -0.273966
v 0.816943 0.000000 -0.273966
v 0.816943 0.000000 -0.453307
v 0.637602 0.000000 -0.453307
v 0.637602 0.000000 -0.455784
v 0.816943 0.000000 -0.455784
v 0.816943 0.000000 -0.635125
v 0.637602 0.000000 -0.635125
v 0.637602 0.000000 -0.637602
v 0.816943 0.000000 -0.637602
v 0.816943 0.000000 -0.816943
v 0.637602 0.000000 -0.816943
v 0.455784 0.000000 0.998762
v 0.635125 0.000000 0.998762
v 0.635125 0.000000 0.819420
v 0.455784 0.000000 0.819420
v 0.455784 0.000000 0.816943
v 0.635125 0.000000 0.816943
v 0.635125 0.000000 0.637602
v 0.455784 0.000000 0.637602
v 0.455784 0.000000 0.635125
v 0.635125 0.000000 0.635125
v 0.635125 0.000000 0.455784
v 0.455784 0.000000 0.455784
v 0.455784 0.000000 0.453307
v 0.635125 0.000000 0.453307
v 0.635125 0.000000 0.273966
v 0.455784 0.000000 0.273966
v 0.455784 0.000000 0.271489
v 0.635125 0.000000 0.271489
v 0.635125 0.000000 0.092147
v 0.455784 0.000000 0.092147
v 0.455784 0.000000 0.089671
v 0.635125 0.000000 0.089671
v 0.635125 0.000000 -0.089671
v 0.455784 0.000000 -0.089671
v 0.455784 0.000000 -0.092148
v 0.635125 0.000000 -0.092148
v 0.635125 0.000000 -0.271489
v 0.455784 0.000000 -0.271489
v 0.455784 0.000000 -0.273966
v 0.635125 0.000000 -0.273966
v 0.635125 0.000000 -0.453307
v 0.455784 0.000000 -0.453307
v 0.455784 0.000000 -0.455784
v 0.635125 0.000000 -0.455784
v 0.635125 0.000000 -0.635125
v 0.455784 0.000000 -0.635125
v 0.455784 0.000000 -0.637602
v 0.635125 0.000000 -0.637602
v 0.635125 0.000000 -0.816943
v 0.455784 0.000000 -0.816943
v 0.273966 0.000000 0.998762
v 0.453307 0.000000 0.998762
v 0.453307 0.000000 0.819420
v 0.273966 0.000000 0.819420
v 0.273966 0.000000 0.816943
v 0.453307 0.000000 0.816943
v 0.453307 0.000000 0.637602
v 0.273966 0.000000 0.637602
v 0.273966 0.000000 0.635125
v 0.453307 0.000000 0.635125
v 0.453307 0.000000 0.455784
v 0.273966 0.000000 0.455784
v 0.273966 0.000000 0.453307
v 0.453307 0.000000 0.453307
v 0.453307 0.000000 0.273966
v 0.273966 0.000000 0.273966
v 0.273966 0.000000 0.271489
v 0.453307 0.000000 0.271489
v 0.453307 0.000000 0.092147
v 0.273966 0.000000 0.092147
v 0.273966 0.000000 0.089671
v 0.453307 0.000000 0.089671
v 0.453307 0.000000 -0.089671
v 0.273966 0.000000 -0.089671
v 0.273966 0.000000 -0.092148
v 0.453307 0.000000 -0.092148
v 0.453307 0.000000 -0.271489
v 0.273966 0.000000 -0.271489
v 0.273966 0.000000 -0.273966
v 0.453307 0.000000 -0.273966
v 0.453307 0.000000 -0.453307
v 0.273966 0.000000 -0.453307
v 0.273966 0.000000 -0.455784
v 0.453307 0.000000 -0.455784
v 0.453307 0.000000 -0.635125
v 0.273966 0.000000 -0.635125
v 0.273966 0.000000 -0.637602
v 0.453307 0.000000 -0.637602
v 0.453307 0.000000 -0.816943
v 0.273966 0.000000 -0.816943
v 0.092148 0.000000 0.998762
v 0.271489 0.000000 0.998762
v 0.271489 0.000000 0.819420
v 0.092148 0.000000 0.819420
v 0.092148 0.000000 0.816943
v 0.271489 0.000000 0.816943
v 0.271489 0.000000 0.637602
v 0.092148 0.000000 0.637602
v 0.092148 0.000000 0.635125
v 0.271489 0.000000 0.635125
v 0.271489 0.000000 0.455784
v 0.092148 0.000000 0.455784
v 0.092148 0.000000 0.453307
v 0.271489 0.000000 0.453307
v 0.271489 0.000000 0.273966
v 0.092148 0.000000 0.273966
v 0.092148 0.000000 0.271489
v 0.271489 0.000000 0.271489
v 0.271489 0.000000 0.092147
v 0.092148 0.000000 0.092147
v 0.092148 0.000000 0.089671
v 0.271489 0.000000 0.089671
v 0.271489 0.000000 -0.089671
v 0.092147 0.000000 -0.089671
v 0.092147 0.000000 -0.092148
v 0.271489 0.000000 -0.092148
v 0.271489 0.000000 -0.271489
v 0.092147 0.000000 -0.271489
v 0.092147 0.000000 -0.273966
v 0.271489 0.000000 -0.273966
v 0.271489 0.000000 -0.453307
v 0.092147 0.000000 -0.453307
v 0.092147 0.000000 -0.455784
v 0.271489 0.000000 -0.455784
v 0.271489 0.000000 -0.635125
v 0.092147 0.000000 -0.635125
v 0.092147 0.000000 -0.637602
v 0.271489 0.000000 -0.637602
v 0.271489 0.000000 -0.816943
v 0.092147 0.000000 -0.816943
v -0.089671 0.000000 0.998762
v 0.089671 0.000000 0.998762
v 0.089671 0.000000 0.819420
v -0.089671 0.000000 0.819420
v -0.089671 0.000000 0.816943
v 0.089671 0.000000 0.816943
v 0.089671 0.000000 0.637602
v -0.089671 0.000000 0.637602
v -0.089671 0.000000 0.635125
v 0.089671 0.000000 0.635125
v 0.089671 0.000000 0.455784
v -0.089671 0.000000 0.455784
v -0.089671 0.000000 0.453307
v 0.089671 0.000000 0.453307
v 0.089671 0.000000 0.273966
v -0.089671 0.000000 0.273966
v -0.089671 0.000000 0.271489
v 0.089671 0.000000 0.271489
v 0.089671 0.000000 0.092147
v -0.089671 0.000000 0.092147
v -0.089671 0.000000 0.089671
v 0.089671 0.000000 0.089671
v 0.089671 0.000000 -0.089671
v -0.089671 0.000000 -0.089671
v -0.089671 0.000000 -0.092148
v 0.089671 0.000000 -0.092148
v 0.089671 0.000000 -0.271489
v -0.089671 0.000000 -0.271489
v -0.089671 0.000000 -0.273966
v 0.089671 0.000000 -0.273966
v 0.089671 0.000000 -0.453307
v -0.089671 0.000000 -0.453307
v -0.089671 0.000000 -0.455784
v 0.089671 0.000000 -0.455784
v 0.089671 0.000000 -0.635125
v -0.089671 0.000000 -0.635125
v -0.089671 0.000000 -0.637602
v 0.089671 0.000000 -0.637602
v 0.089671 0.000000 -0.816943
v -0.089671 0.000000 -0.816943
v -0.271489 0.000000 0.998762
v -0.092147 0.000000 0.998762
v -0.092147 0.000000 0.819420
v -0.271489 0.000000 0.819420
v -0.271489 0.000000 0.816943
v -0.092147 0.000000 0.816943
v -0.092147 0.000000 0.637602
v -0.271489 0.000000 0.637602
v -0.271489 0.000000 0.635125
v -0.092147 0.000000 0.635125
v -0.092147 0.000000 0.455784
v -0.271489 0.000000 0.455784
v -0.271489 0.000000 0.453307
v -0.092147 0.000000 0.453307
v -0.092147 0.000000 0.273966
v -0.271489 0.000000 0.273966
v -0.271489 0.000000 0.271489
v -0.092147 0.000000 0.271489
v -0.092148 0.000000 0.092147
v -0.271489 0.000000 0.092147
v -0.271489 0.000000 0.089671
v -0.092148 0.000000 0.089671
v -0.092148 0.000000 -0.089671
v -0.271489 0.000000 -0.089671
v -0.271489 0.000000 -0.092148
v -0.092148 0.000000 -0.092148
v -0.092148 0.000000 -0.271489
v -0.271489 0.000000 -0.271489
v -0.271489 0.000000 -0.273966
v -0.092148 0.000000 -0.273966
v -0.092148 0.000000 -0.453307
v -0.271489 0.000000 -0.453307
v -0.271489 0.000000 -0.455784
v -0.092148 0.000000 -0.455784
v -0.092148 0.000000 -0.635125
v -0.271489 0.000000 -0.635125
v -0.271489 0.000000 -0.637602
v -0.092148 0.000000 -0.637602
v -0.092148 0.000000 -0.816943
v -0.271489 0.000000 -0.816943
v -0.453307 0.000000 0.998762
v -0.273966 0.000000 0.998762
v -0.273966 0.000000 0.819420
v -0.453307 0.000000 0.819420
v -0.453307 0.000000 0.816943
v -0.273966 0.000000 0.816943
v -0.273966 0.000000 0.637602
v -0.453307 0.000000 0.637602
v -0.453307 0.000000 0.635125
v -0.273966 0.000000 0.635125
v -0.273966 0.000000 0.455784
v -0.453307 0.000000 0.455784
v -0.453307 0.000000 0.453307
v -0.273966 0.000000 0.453307
v -0.273966 0.000000 0.273966
v -0.453307 0.000000 0.273966
v -0.453307 0.000000 0.271489
v -0.273966 0.000000 0.271489
v -0.273966 0.000000 0.092147
v -0.453307 0.000000 0.092147
v -0.453307 0.000000 0.089671
v -0.273966 0.000000 0.089671
v -0.273966 0.000000 -0.089671
v -0.453307 0.000000 -0.089671
v -0.453307 0.000000 -0.092148
v -0.273966 0.000000 -0.092148
v -0.273966 0.000000 -0.271489
v -0.453307 0.000000 -0.271489
v -0.453307 0.000000 -0.273966
v -0.273966 0.000000 -0.273966
v -0.273966 0.000000 -0.453307
v -0.453307 0.000000 -0.453307
v -0.453307 0.000000 -0.455784
v -0.273966 0.000000 -0.455784
v -0.273966 0.000000 -0.635125
v -0.453307 0.000000 -0.635125
v -0.453307 0.000000 -0.637602
v -0.273966 0.000000 -0.637602
v -0.273966 0.000000 -0.816943
v -0.453307 0.000000 -0.816943
v -0.635125 0.000000 0.998762
v -0.455784 0.000000 0.998762
v -0.455784 0.000000 0.819420
v -0.635125 0.000000 0.819420
v -0.635125 0.000000 0.816943
v -0.455784 0.000000 0.816943
v -0.455784 0.000000 0.637602
v -0.635125 0.000000 0.637602
v -0.635125 0.000000 0.635125
v -0.455784 0.000000 0.635125
v -0.455784 0.000000 0.455784
v -0.635125 0.000000 0.455784
v -0.635125 0.000000 0.453307
v -0.455784 0.000000 0.453307
v -0.455784 0.000000 0.273966
v -0.635125 0.000000 0.273966
v -0.635125 0.000000 0.271489
v -0.455784 0.000000 0.271489
v -0.455784 0.000000 0.092147
v -0.635125 0.000000 0.092147
v -0.635125 0.000000 0.089671
v -0.455784 0.000000 0.089671
v -0.455784 0.000000 -0.089671
v -0.635125 0.000000 -0.089671
v -0.635125 0.000000 -0.092148
v -0.455784 0.000000 -0.092148
v -0.455784 0.000000 -0.271489
v -0.635125 0.000000 -0.271489
v -0.635125 0.000000 -0.273966
v -0.455784 0.000000 -0.273966
v -0.455784 0.000000 -0.453307
v -0.635125 0.000000 -0.453307
v -0.635125 0.000000 -0.455784
v -0.455784 0.000000 -0.455784
v -0.455784 0.000000 -0.635125
v -0.635125 0.000000 -0.635125
v -0.635125 0.000000 -0.637602
v -0.455784 0.000000 -0.637602
v -0.455784 0.000000 -0.816943
v -0.635125 0.000000 -0.816943
v -0.816943 0.000000 0.998762
v -0.637602 0.000000 0.998762
v -0.637602 0.000000 0.819420
v -0.816943 0.000000 0.819420
v -0.816943 0.000000 0.816943
v -0.637602 0.000000 0.816943
v -0.637602 0.000000 0.637602
v -0.816943 0.000000 0.637602
v -0.816943 0.000000 0.635125
v -0.637602 0.000000 0.635125
v -0.637602 0.000000 0.455784
v -0.816943 0.000000 0.455784
v -0.816943 0.000000 0.453307
v -0.637602 0.000000 0.453307
v -0.637602 0.000000 0.273966
v -0.816943 0.000000 0.273966
v -0.816943 0.000000 0.271489
v -0.637602 0.000000 0.271489
v -0.637602 0.000000 0.092147
v -0.816943 0.000000 0.092147
v -0.816943 0.000000 0.089671
v -0.637602 0.000000 0.089671
v -0.637602 0.000000 -0.089671
v -0.816943 0.000000 -0.089671
v -0.816943 0.000000 -0.092148
v -0.637602 0.000000 -0.092148
v -0.637602 0.000000 -0.271489
v -0.816943 0.000000 -0.271489
v -0.816943 0.000000 -0.273966
v -0.637602 0.000000 -0.273966
v -0.637602 0.000000 -0.453307
v -0.816943 0.000000 -0.453307
v -0.816943 0.000000 -0.455784
v -0.637602 0.000000 -0.455784
v -0.637602 0.000000 -0.635125
v -0.816943 0.000000 -0.635125
v -0.816943 0.000000 -0.637602
v -0.637602 0.000000 -0.637602
v -0.637602 0.000000 -0.816943
v -0.816943 0.000000 -0.816943
v -0.998762 0.000000 0.998762
v -0.819420 0.000000 0.998762
v -0.819420 0.000000 0.819420
v -0.998762 0.000000 0.819420
v -0.998762 0.000000 0.816943
v -0.819420 0.000000 0.816943
v -0.819420 0.000000 0.637602
v -0.998762 0.000000 0.637602
v -0.998762 0.000000 0.635125
v -0.819420 0.000000 0.635125
v -0.819420 0.000000 0.455784
v -0.998762 0.000000 0.455784
v -0.998762 0.000000 0.453307
v -0.819420 0.000000 0.453307
v -0.819420 0.000000 0.273966
v -0.998762 0.000000 0.273966
v -0.998762 0.000000 0.271489
v -0.819420 0.000000 0.271489
v -0.819420 0.000000 0.092147
v -0.998762 0.000000 0.092148
v -0.998762 0.000000 0.089671
v -0.819420 0.000000 0.089671
v -0.819420 0.000000 -0.089671
v -0.998762 0.000000 -0.089671
v -0.998762 0.000000 -0.092147
v -0.819420 0.000000 -0.092148
v -0.819420 0.000000 -0.271489
v -0.998762 0.000000 -0.271489
v -0.998762 0.000000 -0.273966
v -0.819420 0.000000 -0.273966
v -0.819420 0.000000 -0.453307
v -0.998762 0.000000 -0.453307
v -0.998762 0.000000 -0.455784
v -0.819420 0.000000 -0.455784
v -0.819420 0.000000 -0.635125
v -0.998762 0.000000 -0.635125
v -0.998762 0.000000 -0.637602
v -0.819420 0.000000 -0.637602
v -0.819420 0.000000 -0.816943
v -0.998762 0.000000 -0.816943
v 0.819420 0.000000 0.998762
v 0.998762 0.000000 0.998762
v 0.998762 0.000000 0.819420
v 0.819420 0.000000 0.819420
v 0.819420 0.000000 0.816943
v 0.998762 0.000000 0.816943
v 0.998762 0.000000 0.637602
v 0.819420 0.000000 0.637602
v 0.819420 0.000000 0.635125
v 0.998762 0.000000 0.635125
v 0.998762 0.000000 0.455784
v 0.819420 0.000000 0.455784
v 0.819420 0.000000 0.453307
v 0.998762 0.000000 0.453307
v 0.998762 0.000000 0.273966
v 0.819420 0.000000 0.273966
v 0.819420 0.000000 0.271489
v 0.998762 0.000000 0.271489
v 0.998762 0.000000 0.092147
v 0.819420 0.000000 0.092147
v 0.819420 0.000000 0.089671
v 0.998762 0.000000 0.089671
v 0.998762 0.000000 -0.089671
v 0.819420 0.000000 -0.089671
v 0.819420 0.000000 -0.092148
v 0.998762 0.000000 -0.092148
v 0.998762 0.000000 -0.271489
v 0.819420 0.000000 -0.271489
v 0.819420 0.000000 -0.273966
v 0.998762 0.000000 -0.273966
v 0.998762 0.000000 -0.453307
v 0.819420 0.000000 -0.453307
v 0.819420 0.000000 -0.455784
v 0.998762 0.000000 -0.455784
v 0.998762 0.000000 -0.635125
v 0.819420 0.000000 -0.635125
v 0.819420 0.000000 -0.637602
v 0.998762 0.000000 -0.637602
v 0.998762 0.000000 -0.816943
v 0.819420 0.000000 -0.816943
vn -0.0000 1.0000 -0.0000
vt 0.909091 0.909091
vt 1.000000 0.909091
vt 0.997034 0.912057
vt 0.912057 0.912057
vt 1.000000 1.000000
vt 0.997034 0.997034
vt 0.909091 1.000000
vt 0.912057 0.997034
vt 0.000000 0.909091
vt 0.090909 0.909091
vt 0.087943 0.912057
vt 0.002966 0.912057
vt 0.090909 1.000000
vt 0.087943 0.997034
vt 0.000000 1.000000
vt 0.002966 0.997034
vt 0.181818 0.909091
vt 0.178852 0.912057
vt 0.093875 0.912057
vt 0.181818 1.000000
vt 0.178852 0.997034
vt 0.093875 0.997034
vt 0.272727 0.909091
vt 0.269761 0.912057
vt 0.184784 0.912057
vt 0.272727 1.000000
vt 0.269761 0.997034
vt 0.184784 0.997034
vt 0.363636 0.909091
vt 0.360670 0.912057
vt 0.275694 0.912057
vt 0.363636 1.000000
vt 0.360670 0.997034
vt 0.275694 0.997034
vt 0.454546 0.909091
vt 0.451579 0.912057
vt 0.366603 0.912057
vt 0.454545 1.000000
vt 0.451579 0.997034
vt 0.366603 0.997034
vt 0.545455 0.909091
vt 0.542488 0.912057
vt 0.457512 0.912057
vt 0.545455 1.000000
vt 0.542488 0.997034
vt 0.457512 0.997034
vt 0.636364 0.909091
vt 0.633397 0.912057
vt 0.548421 0.912057
vt 0.636364 1.000000
vt 0.633397 0.997034
vt 0.548421 0.997034
vt 0.727273 0.909091
vt 0.724306 0.912057
vt 0.639330 0.912057
vt 0.727273 1.000000
vt 0.724306 0.997034
vt 0.639330 0.997034
vt 0.818182 0.909091
vt 0.815216 0.912057
vt 0.730239 0.912057
vt 0.818182 1.000000
vt 0.815215 0.997034
vt 0.730239 0.997034
vt 0.906125 0.912057
vt 0.821148 0.912057
vt 0.906125 0.997034
vt 0.821148 0.997034
vt 0.818182 0.000000
vt 0.909091 0.000000
vt 0.906125 0.002966
vt 0.821148 0.002966
vt 0.909091 0.090909
vt 0.906125 0.087943
vt 0.818182 0.090909
vt 0.821148 0.087943
vt 0.906125 0.093875
vt 0.821148 0.093875
vt 0.909091 0.181818
vt 0.906124 0.178852
vt 0.818182 0.181818
vt 0.821148 0.178852
vt 0.906125 0.184784
vt 0.821148 0.184784
vt 0.909091 0.272727
vt 0.906125 0.269761
vt 0.818182 0.272727
vt 0.821148 0.269761
vt 0.906125 0.275694
vt 0.821148 0.275694
vt 0.909091 0.363636
vt 0.906125 0.360670
vt 0.818182 0.363636
vt 0.821148 0.360670
vt 0.906125 0.366603
vt 0.821148 0.366603
vt 0.909091 0.454545
vt 0.906125 0.451579
vt 0.818182 0.454545
vt 0.821148 0.451579
vt 0.906125 0.457512
vt 0.821148 0.457512
vt 0.909091 0.545455
vt 0.906125 0.542488
vt 0.818182 0.545455
vt 0.821148 0.542488
vt 0.906125 0.548421
vt 0.821148 0.548421
vt 0.909091 0.636364
vt 0.906125 0.633397
vt 0.818182 0.636364
vt 0.821148 0.633398
vt 0.906125 0.639330
vt 0.821148 0.639330
vt 0.909091 0.727273
vt 0.906125 0.724306
vt 0.818182 0.727273
vt 0.821148 0.724307
vt 0.906125 0.730239
vt 0.821148 0.730239
vt 0.909091 0.818182
vt 0.906125 0.815216
vt 0.818182 0.818182
vt 0.821148 0.815216
vt 0.906125 0.821148
vt 0.821148 0.821148
vt 0.906125 0.906125
vt 0.821148 0.906125
vt 0.727273 0.000000
vt 0.815216 0.002966
vt 0.730239 0.002966
vt 0.815215 0.087943
vt 0.727273 0.090909
vt 0.730239 0.087943
vt 0.815215 0.093875
vt 0.730239 0.093875
vt 0.815215 0.178852
vt 0.727273 0.181818
vt 0.730239 0.178852
vt 0.815215 0.184784
vt 0.730239 0.184784
vt 0.815215 0.269761
vt 0.727273 0.272727
vt 0.730239 0.269761
vt 0.815216 0.275694
vt 0.730239 0.275694
vt 0.815215 0.360670
vt 0.727273 0.363636
vt 0.730239 0.360670
vt 0.815216 0.366603
vt 0.730239 0.366603
vt 0.815215 0.451579
vt 0.727273 0.454545
vt 0.730239 0.451579
vt 0.815216 0.457512
vt 0.730239 0.457512
vt 0.815215 0.542488
vt 0.727273 0.545455
vt 0.730239 0.542488
vt 0.815216 0.548421
vt 0.730239 0.548421
vt 0.815215 0.633397
vt 0.727273 0.636364
vt 0.730239 0.633398
vt 0.815216 0.639330
vt 0.730239 0.639330
vt 0.815215 0.724306
vt 0.727273 0.727273
vt 0.730239 0.724307
vt 0.815216 0.730239
vt 0.730239 0.730239
vt 0.815215 0.815216
vt 0.727273 0.818182
vt 0.730239 0.815216
vt 0.815216 0.821148
vt 0.730239 0.821148
vt 0.815215 0.906125
vt 0.730239 0.906125
vt 0.636364 0.000000
vt 0.724306 0.002966
vt 0.639330 0.002966
vt 0.724306 0.087943
vt 0.636364 0.090909
vt 0.639330 0.087943
vt 0.724306 0.093875
vt 0.639330 0.093875
vt 0.724306 0.178852
vt 0.636364 0.181818
vt 0.639330 0.178852
vt 0.724306 0.184784
vt 0.639330 0.184784
vt 0.724307 0.269761
vt 0.636364 0.272727
vt 0.639330 0.269761
vt 0.724307 0.275694
vt 0.639330 0.275694
vt 0.724306 0.360670
vt 0.636364 0.363636
vt 0.639330 0.360670
vt 0.724307 0.366603
vt 0.639330 0.366603
vt 0.724306 0.451579
vt 0.636364 0.454545
vt 0.639330 0.451579
vt 0.724307 0.457512
vt 0.639330 0.457512
vt 0.724306 0.542488
vt 0.636364 0.545455
vt 0.639330 0.542488
vt 0.724307 0.548421
vt 0.639330 0.548421
vt 0.724306 0.633397
vt 0.636364 0.636364
vt 0.639330 0.633398
vt 0.724307 0.639330
vt 0.639330 0.639330
vt 0.724306 0.724307
vt 0.636364 0.727273
vt 0.639330 0.724307
vt 0.724307 0.730239
vt 0.639330 0.730239
vt 0.724306 0.815216
vt 0.636364 0.818182
vt 0.639330 0.815216
vt 0.724306 0.821148
vt 0.639330 0.821148
vt 0.724306 0.906125
vt 0.639330 0.906125
vt 0.545455 0.000000
vt 0.633397 0.002966
vt 0.548421 0.002966
vt 0.633397 0.087943
vt 0.545455 0.090909
vt 0.548421 0.087943
vt 0.633397 0.093875
vt 0.548421 0.093875
vt 0.633397 0.178852
vt 0.545455 0.181818
vt 0.548421 0.178852
vt 0.633397 0.184784
vt 0.548421 0.184784
vt 0.633397 0.269761
vt 0.545455 0.272727
vt 0.548421 0.269761
vt 0.633398 0.275694
vt 0.548421 0.275694
vt 0.633397 0.360670
vt 0.545455 0.363636
vt 0.548421 0.360670
vt 0.633398 0.366603
vt 0.548421 0.366603
vt 0.633398 0.451579
vt 0.545455 0.454546
vt 0.548421 0.451579
vt 0.633398 0.457512
vt 0.548421 0.457512
vt 0.633398 0.542488
vt 0.545455 0.545455
vt 0.548421 0.542488
vt 0.633398 0.548421
vt 0.548421 0.548421
vt 0.633398 0.633398
vt 0.545455 0.636364
vt 0.548421 0.633398
vt 0.633398 0.639330
vt 0.548421 0.639330
vt 0.633398 0.724307
vt 0.545455 0.727273
vt 0.548421 0.724307
vt 0.633398 0.730239
vt 0.548421 0.730239
vt 0.633397 0.815216
vt 0.545455 0.818182
vt 0.548421 0.815216
vt 0.633397 0.821148
vt 0.548421 0.821148
vt 0.633397 0.906125
vt 0.548421 0.906125
vt 0.454545 0.000000
vt 0.542488 0.002966
vt 0.457512 0.002966
vt 0.542488 0.087943
vt 0.454546 0.090909
vt 0.457512 0.087943
vt 0.542488 0.093875
vt 0.457512 0.093875
vt 0.542488 0.178852
vt 0.454545 0.181818
vt 0.457512 0.178852
vt 0.542488 0.184784
vt 0.457512 0.184784
vt 0.542488 0.269761
vt 0.454545 0.272727
vt 0.457512 0.269761
vt 0.542488 0.275694
vt 0.457512 0.275694
vt 0.542488 0.360670
vt 0.454545 0.363636
vt 0.457512 0.360670
vt 0.542488 0.366603
vt 0.457512 0.366603
vt 0.542488 0.451579
vt 0.454546 0.454546
vt 0.457512 0.451579
vt 0.542488 0.457512
vt 0.457512 0.457512
vt 0.542488 0.542488
vt 0.454545 0.545455
vt 0.457512 0.542488
vt 0.542488 0.548421
vt 0.457512 0.548421
vt 0.542488 0.633397
vt 0.454545 0.636364
vt 0.457512 0.633398
vt 0.542488 0.639330
vt 0.457512 0.639330
vt 0.542488 0.724306
vt 0.454545 0.727273
vt 0.457512 0.724307
vt 0.542488 0.730239
vt 0.457512 0.730239
vt 0.542488 0.815216
vt 0.454546 0.818182
vt 0.457512 0.815216
vt 0.542488 0.821148
vt 0.457512 0.821148
vt 0.542488 0.906125
vt 0.457512 0.906125
vt 0.363636 0.000000
vt 0.451579 0.002966
vt 0.366603 0.002966
vt 0.451579 0.087943
vt 0.363636 0.090909
vt 0.366603 0.087943
vt 0.451579 0.093875
vt 0.366603 0.093875
vt 0.451579 0.178852
vt 0.363636 0.181818
vt 0.366603 0.178852
vt 0.451579 0.184784
vt 0.366603 0.184784
vt 0.451579 0.269761
vt 0.363636 0.272727
vt 0.366603 0.269761
vt 0.451579 0.275694
vt 0.366603 0.275694
vt 0.451579 0.360670
vt 0.363636 0.363636
vt 0.366603 0.360670
vt 0.451579 0.366603
vt 0.366603 0.366603
vt 0.451579 0.451579
vt 0.363636 0.454545
vt 0.366603 0.451579
vt 0.451579 0.457512
vt 0.366603 0.457512
vt 0.451579 0.542488
vt 0.363636 0.545455
vt 0.366603 0.542488
vt 0.451579 0.548421
vt 0.366603 0.548421
vt 0.451579 0.633397
vt 0.363636 0.636364
vt 0.366603 0.633398
vt 0.451579 0.639330
vt 0.366603 0.639330
vt 0.451579 0.724306
vt 0.363636 0.727273
vt 0.366603 0.724307
vt 0.451579 0.730239
vt 0.366603 0.730239
vt 0.451579 0.815216
vt 0.363636 0.818182
vt 0.366603 0.815216
vt 0.451579 0.821148
vt 0.366603 0.821148
vt 0.451579 0.906125
vt 0.366603 0.906125
vt 0.272727 0.000000
vt 0.360670 0.002966
vt 0.275694 0.002966
vt 0.360670 0.087943
vt 0.272727 0.090909
vt 0.275694 0.087943
vt 0.360670 0.093875
vt 0.275694 0.093875
vt 0.360670 0.178852
vt 0.272727 0.181818
vt 0.275694 0.178852
vt 0.360670 0.184784
vt 0.275694 0.184784
vt 0.360670 0.269761
vt 0.272727 0.272727
vt 0.275694 0.269761
vt 0.360670 0.275694
vt 0.275694 0.275694
vt 0.360670 0.360670
vt 0.272727 0.363636
vt 0.275694 0.360670
vt 0.360670 0.366603
vt 0.275694 0.366603
vt 0.360670 0.451579
vt 0.272727 0.454545
vt 0.275694 0.451579
vt 0.360670 0.457512
vt 0.275694 0.457512
vt 0.360670 0.542488
vt 0.272727 0.545455
vt 0.275694 0.542488
vt 0.360670 0.548421
vt 0.275694 0.548421
vt 0.360670 0.633397
vt 0.272727 0.636364
vt 0.275694 0.633398
vt 0.360670 0.639330
vt 0.275694 0.639330
vt 0.360670 0.724307
vt 0.272727 0.727273
vt 0.275694 0.724307
vt 0.360670 0.730239
vt 0.275694 0.730239
vt 0.360670 0.815216
vt 0.272727 0.818182
vt 0.275693 0.815216
vt 0.360670 0.821148
vt 0.275693 0.821148
vt 0.360670 0.906125
vt 0.275693 0.906125
vt 0.181818 0.000000
vt 0.269761 0.002966
vt 0.184784 0.002966
vt 0.269761 0.087943
vt 0.181818 0.090909
vt 0.184784 0.087943
vt 0.269761 0.093875
vt 0.184784 0.093875
vt 0.269761 0.178852
vt 0.181818 0.181818
vt 0.184784 0.178852
vt 0.269761 0.184784
vt 0.184784 0.184784
vt 0.269761 0.269761
vt 0.181818 0.272727
vt 0.184784 0.269761
vt 0.269761 0.275694
vt 0.184784 0.275694
vt 0.269761 0.360670
vt 0.181818 0.363636
vt 0.184784 0.360670
vt 0.269761 0.366603
vt 0.184784 0.366603
vt 0.269761 0.451579
vt 0.181818 0.454545
vt 0.184784 0.451579
vt 0.269761 0.457512
vt 0.184784 0.457512
vt 0.269761 0.542488
vt 0.181818 0.545455
vt 0.184784 0.542488
vt 0.269761 0.548421
vt 0.184784 0.548421
vt 0.269761 0.633397
vt 0.181818 0.636364
vt 0.184784 0.633398
vt 0.269761 0.639330
vt 0.184784 0.639330
vt 0.269761 0.724307
vt 0.181818 0.727273
vt 0.184784 0.724307
vt 0.269761 0.730239
vt 0.184784 0.730239
vt 0.269761 0.815216
vt 0.181818 0.818182
vt 0.184784 0.815216
vt 0.269761 0.821148
vt 0.184784 0.821148
vt 0.269761 0.906125
vt 0.184784 0.906125
vt 0.090909 0.000000
vt 0.178852 0.002966
vt 0.093875 0.002966
vt 0.178852 0.087943
vt 0.090909 0.090909
vt 0.093875 0.087943
vt 0.178852 0.093875
vt 0.093875 0.093875
vt 0.178852 0.178852
vt 0.090909 0.181818
vt 0.093875 0.178852
vt 0.178852 0.184784
vt 0.093875 0.184784
vt 0.178852 0.269761
vt 0.090909 0.272727
vt 0.093875 0.269761
vt 0.178852 0.275694
vt 0.093875 0.275694
vt 0.178852 0.360670
vt 0.090909 0.363636
vt 0.093875 0.360670
vt 0.178852 0.366603
vt 0.093875 0.366603
vt 0.178852 0.451579
vt 0.090909 0.454546
vt 0.093875 0.451579
vt 0.178852 0.457512
vt 0.093875 0.457512
vt 0.178852 0.542488
vt 0.090909 0.545455
vt 0.093875 0.542488
vt 0.178852 0.548421
vt 0.093875 0.548421
vt 0.178852 0.633397
vt 0.090909 0.636364
vt 0.093875 0.633398
vt 0.178852 0.639330
vt 0.093875 0.639330
vt 0.178852 0.724306
vt 0.090909 0.727273
vt 0.093875 0.724307
vt 0.178852 0.730239
vt 0.093875 0.730239
vt 0.178852 0.815216
vt 0.090909 0.818182
vt 0.093875 0.815216
vt 0.178852 0.821148
vt 0.093875 0.821148
vt 0.178852 0.906125
vt 0.093875 0.906125
vt 0.000000 0.000000
vt 0.087943 0.002966
vt 0.002966 0.002966
vt 0.087943 0.087943
vt 0.000000 0.090909
vt 0.002966 0.087943
vt 0.087943 0.093875
vt 0.002966 0.093875
vt 0.087943 0.178852
vt 0.000000 0.181818
vt 0.002966 0.178852
vt 0.087943 0.184784
vt 0.002966 0.184784
vt 0.087943 0.269761
vt 0.000000 0.272727
vt 0.002966 0.269761
vt 0.087943 0.275694
vt 0.002966 0.275694
vt 0.087943 0.360670
vt 0.000000 0.363636
vt 0.002966 0.360670
vt 0.087943 0.366603
vt 0.002966 0.366603
vt 0.087943 0.451579
vt 0.000000 0.454545
vt 0.002966 0.451579
vt 0.087943 0.457512
vt 0.002966 0.457512
vt 0.087943 0.542488
vt 0.000000 0.545455
vt 0.002966 0.542488
vt 0.087943 0.548421
vt 0.002966 0.548421
vt 0.087943 0.633397
vt 0.000000 0.636364
vt 0.002966 0.633397
vt 0.087943 0.639330
vt 0.002966 0.639330
vt 0.087943 0.724307
vt 0.000000 0.727273
vt 0.002966 0.724306
vt 0.087943 0.730239
vt 0.002966 0.730239
vt 0.087943 0.815216
vt 0.000000 0.818182
vt 0.002966 0.815216
vt 0.087943 0.821148
vt 0.002966 0.821148
vt 0.087943 0.906125
vt 0.002966 0.906125
vt 1.000000 0.000000
vt 0.997034 0.002966
vt 0.912057 0.002966
vt 1.000000 0.090909
vt 0.997034 0.087943
vt 0.912057 0.087943
vt 0.997034 0.093875
vt 0.912057 0.093875
vt 1.000000 0.181818
vt 0.997034 0.178852
vt 0.912057 0.178852
vt 0.997034 0.184784
vt 0.912057 0.184784
vt 1.000000 0.272727
vt 0.997034 0.269761
vt 0.912057 0.269761
vt 0.997034 0.275694
vt 0.912057 0.275694
vt 1.000000 0.363636
vt 0.997034 0.360670
vt 0.912057 0.360670
vt 0.997034 0.366603
vt 0.912057 0.366603
vt 1.000000 0.454545
vt 0.997034 0.451579
vt 0.912057 0.451579
vt 0.997034 0.457512
vt 0.912057 0.457512
vt 1.000000 0.545455
vt 0.997034 0.542488
vt 0.912057 0.542488
vt 0.997034 0.548421
vt 0.912057 0.548421
vt 1.000000 0.636364
vt 0.997034 0.633397
vt 0.912057 0.633398
vt 0.997034 0.639330
vt 0.912057 0.639330
vt 1.000000 0.727273
vt 0.997034 0.724306
vt 0.912057 0.724307
vt 0.997034 0.730239
vt 0.912057 0.730239
vt 1.000000 0.818182
vt 0.997034 0.815216
vt 0.912057 0.815216
vt 0.997034 0.821148
vt 0.912057 0.821148
vt 0.997034 0.906125
vt 0.912057 0.906125
s 0
f 144/1/1 44/2/1 146/3/1 145/4/1
f 44/2/1 4/5/1 147/6/1 146/3/1
f 4/5/1 15/7/1 148/8/1 147/6/1
f 15/7/1 144/1/1 145/4/1 148/8/1
f 25/9/1 54/10/1 150/11/1 149/12/1
f 54/10/1 24/13/1 151/14/1 150/11/1
f 24/13/1 3/15/1 152/16/1 151/14/1
f 3/15/1 25/9/1 149/12/1 152/16/1
f 54/10/1 64/17/1 154/18/1 153/19/1
f 64/17/1 23/20/1 155/21/1 154/18/1
f 23/20/1 24/13/1 156/22/1 155/21/1
f 24/13/1 54/10/1 153/19/1 156/22/1
f 64/17/1 74/23/1 158/24/1 157/25/1
f 74/23/1 22/26/1 159/27/1 158/24/1
f 22/26/1 23/20/1 160/28/1 159/27/1
f 23/20/1 64/17/1 157/25/1 160/28/1
f 74/23/1 84/29/1 162/30/1 161/31/1
f 84/29/1 21/32/1 163/33/1 162/30/1
f 21/32/1 22/26/1 164/34/1 163/33/1
f 22/26/1 74/23/1 161/31/1 164/34/1
f 84/29/1 94/35/1 166/36/1 165/37/1
f 94/35/1 20/38/1 167/39/1 166/36/1
f 20/38/1 21/32/1 168/40/1 167/39/1
f 21/32/1 84/29/1 165/37/1 168/40/1
f 94/35/1 104/41/1 170/42/1 169/43/1
f 104/41/1 19/44/1 171/45/1 170/42/1
f 19/44/1 20/38/1 172/46/1 171/45/1
f 20/38/1 94/35/1 169/43/1 172/46/1
f 104/41/1 114/47/1 174/48/1 173/49/1
f 114/47/1 18/50/1 175/51/1 174/48/1
f 18/50/1 19/44/1 176/52/1 175/51/1
f 19/44/1 104/41/1 173/49/1 176/52/1
f 114/47/1 124/53/1 178/54/1 177/55/1
f 124/53/1 17/56/1 179/57/1 178/54/1
f 17/56/1 18/50/1 180/58/1 179/57/1
f 18/50/1 114/47/1 177/55/1 180/58/1
f 124/53/1 134/59/1 182/60/1 181/61/1
f 134/59/1 16/62/1 183/63/1 182/60/1
f 16/62/1 17/56/1 184/64/1 183/63/1
f 17/56/1 124/53/1 181/61/1 184/64/1
f 134/59/1 144/1/1 186/65/1 185/66/1
f 144/1/1 15/7/1 187/67/1 186/65/1
f 15/7/1 16/62/1 188/68/1 187/67/1
f 16/62/1 134/59/1 185/66/1 188/68/1
f 13/69/1 14/70/1 190/71/1 189/72/1
f 14/70/1 135/73/1 191/74/1 190/71/1
f 135/73/1 125/75/1 192/76/1 191/74/1
f 125/75/1 13/69/1 189/72/1 192/76/1
f 125/75/1 135/73/1 194/77/1 193/78/1
f 135/73/1 136/79/1 195/80/1 194/77/1
f 136/79/1 126/81/1 196/82/1 195/80/1
f 126/81/1 125/75/1 193/78/1 196/82/1
f 126/81/1 136/79/1 198/83/1 197/84/1
f 136/79/1 137/85/1 199/86/1 198/83/1
f 137/85/1 127/87/1 200/88/1 199/86/1
f 127/87/1 126/81/1 197/84/1 200/88/1
f 127/87/1 137/85/1 202/89/1 201/90/1
f 137/85/1 138/91/1 203/92/1 202/89/1
f 138/91/1 128/93/1 204/94/1 203/92/1
f 128/93/1 127/87/1 201/90/1 204/94/1
f 128/93/1 138/91/1 206/95/1 205/96/1
f 138/91/1 139/97/1 207/98/1 206/95/1
f 139/97/1 129/99/1 208/100/1 207/98/1
f 129/99/1 128/93/1 205/96/1 208/100/1
f 129/99/1 139/97/1 210/101/1 209/102/1
f 139/97/1 140/103/1 211/104/1 210/101/1
f 140/103/1 130/105/1 212/106/1 211/104/1
f 130/105/1 129/99/1 209/102/1 212/106/1
f 130/105/1 140/103/1 214/107/1 213/108/1
f 140/103/1 141/109/1 215/110/1 214/107/1
f 141/109/1 131/111/1 216/112/1 215/110/1
f 131/111/1 130/105/1 213/108/1 216/112/1
f 131/111/1 141/109/1 218/113/1 217/114/1
f 141/109/1 142/115/1 219/116/1 218/113/1
f 142/115/1 132/117/1 220/118/1 219/116/1
f 132/117/1 131/111/1 217/114/1 220/118/1
f 132/117/1 142/115/1 222/119/1 221/120/1
f 142/115/1 143/121/1 223/122/1 222/119/1
f 143/121/1 133/123/1 224/124/1 223/122/1
f 133/123/1 132/117/1 221/120/1 224/124/1
f 133/123/1 143/121/1 226/125/1 225/126/1
f 143/121/1 144/1/1 227/127/1 226/125/1
f 144/1/1 134/59/1 228/128/1 227/127/1
f 134/59/1 133/123/1 225/126/1 228/128/1
f 12/129/1 13/69/1 230/130/1 229/131/1
f 13/69/1 125/75/1 231/132/1 230/130/1
f 125/75/1 115/133/1 232/134/1 231/132/1
f 115/133/1 12/129/1 229/131/1 232/134/1
f 115/133/1 125/75/1 234/135/1 233/136/1
f 125/75/1 126/81/1 235/137/1 234/135/1
f 126/81/1 116/138/1 236/139/1 235/137/1
f 116/138/1 115/133/1 233/136/1 236/139/1
f 116/138/1 126/81/1 238/140/1 237/141/1
f 126/81/1 127/87/1 239/142/1 238/140/1
f 127/87/1 117/143/1 240/144/1 239/142/1
f 117/143/1 116/138/1 237/141/1 240/144/1
f 117/143/1 127/87/1 242/145/1 241/146/1
f 127/87/1 128/93/1 243/147/1 242/145/1
f 128/93/1 118/148/1 244/149/1 243/147/1
f 118/148/1 117/143/1 241/146/1 244/149/1
f 118/148/1 128/93/1 246/150/1 245/151/1
f 128/93/1 129/99/1 247/152/1 246/150/1
f 129/99/1 119/153/1 248/154/1 247/152/1
f 119/153/1 118/148/1 245/151/1 248/154/1
f 119/153/1 129/99/1 250/155/1 249/156/1
f 129/99/1 130/105/1 251/157/1 250/155/1
f 130/105/1 120/158/1 252/159/1 251/157/1
f 120/158/1 119/153/1 249/156/1 252/159/1
f 120/158/1 130/105/1 254/160/1 253/161/1
f 130/105/1 131/111/1 255/162/1 254/160/1
f 131/111/1 121/163/1 256/164/1 255/162/1
f 121/163/1 120/158/1 253/161/1 256/164/1
f 121/163/1 131/111/1 258/165/1 257/166/1
f 131/111/1 132/117/1 259/167/1 258/165/1
f 132/117/1 122/168/1 260/169/1 259/167/1
f 122/168/1 121/163/1 257/166/1 260/169/1
f 122/168/1 132/117/1 262/170/1 261/171/1
f 132/117/1 133/123/1 263/172/1 262/170/1
f 133/123/1 123/173/1 264/174/1 263/172/1
f 123/173/1 122/168/1 261/171/1 264/174/1
f 123/173/1 133/123/1 266/175/1 265/176/1
f 133/123/1 134/59/1 267/177/1 266/175/1
f 134/59/1 124/53/1 268/178/1 267/177/1
f 124/53/1 123/173/1 265/176/1 268/178/1
f 11/179/1 12/129/1 270/180/1 269/181/1
f 12/129/1 115/133/1 271/182/1 270/180/1
f 115/133/1 105/183/1 272/184/1 271/182/1
f 105/183/1 11/179/1 269/181/1 272/184/1
f 105/183/1 115/133/1 274/185/1 273/186/1
f 115/133/1 116/138/1 275/187/1 274/185/1
f 116/138/1 106/188/1 276/189/1 275/187/1
f 106/188/1 105/183/1 273/186/1 276/189/1
f 106/188/1 116/138/1 278/190/1 277/191/1
f 116/138/1 117/143/1 279/192/1 278/190/1
f 117/143/1 107/193/1 280/194/1 279/192/1
f 107/193/1 106/188/1 277/191/1 280/194/1
f 107/193/1 117/143/1 282/195/1 281/196/1
f 117/143/1 118/148/1 283/197/1 282/195/1
f 118/148/1 108/198/1 284/199/1 283/197/1
f 108/198/1 107/193/1 281/196/1 284/199/1
f 108/198/1 118/148/1 286/200/1 285/201/1
f 118/148/1 119/153/1 287/202/1 286/200/1
f 119/153/1 109/203/1 288/204/1 287/202/1
f 109/203/1 108/198/1 285/201/1 288/204/1
f 109/203/1 119/153/1 290/205/1 289/206/1
f 119/153/1 120/158/1 291/207/1 290/205/1
f 120/158/1 110/208/1 292/209/1 291/207/1
f 110/208/1 109/203/1 289/206/1 292/209/1
f 110/208/1 120/158/1 294/210/1 293/211/1
f 120/158/1 121/163/1 295/212/1 294/210/1
f 121/163/1 111/213/1 296/214/1 295/212/1
f 111/213/1 110/208/1 293/211/1 296/214/1
f 111/213/1 121/163/1 298/215/1 297/216/1
f 121/163/1 122/168/1 299/217/1 298/215/1
f 122/168/1 112/218/1 300/219/1 299/217/1
f 112/218/1 111/213/1 297/216/1 300/219/1
f 112/218/1 122/168/1 302/220/1 301/221/1
f 122/168/1 123/173/1 303/222/1 302/220/1
f 123/173/1 113/223/1 304/224/1 303/222/1
f 113/223/1 112/218/1 301/221/1 304/224/1
f 113/223/1 123/173/1 306/225/1 305/226/1
f 123/173/1 124/53/1 307/227/1 306/225/1
f 124/53/1 114/47/1 308/228/1 307/227/1
f 114/47/1 113/223/1 305/226/1 308/228/1
f 10/229/1 11/179/1 310/230/1 309/231/1
f 11/179/1 105/183/1 311/232/1 310/230/1
f 105/183/1 95/233/1 312/234/1 311/232/1
f 95/233/1 10/229/1 309/231/1 312/234/1
f 95/233/1 105/183/1 314/235/1 313/236/1
f 105/183/1 106/188/1 315/237/1 314/235/1
f 106/188/1 96/238/1 316/239/1 315/237/1
f 96/238/1 95/233/1 313/236/1 316/239/1
f 96/238/1 106/188/1 318/240/1 317/241/1
f 106/188/1 107/193/1 319/242/1 318/240/1
f 107/193/1 97/243/1 320/244/1 319/242/1
f 97/243/1 96/238/1 317/241/1 320/244/1
f 97/243/1 107/193/1 322/245/1 321/246/1
f 107/193/1 108/198/1 323/247/1 322/245/1
f 108/198/1 98/248/1 324/249/1 323/247/1
f 98/248/1 97/243/1 321/246/1 324/249/1
f 98/248/1 108/198/1 326/250/1 325/251/1
f 108/198/1 109/203/1 327/252/1 326/250/1
f 109/203/1 99/253/1 328/254/1 327/252/1
f 99/253/1 98/248/1 325/251/1 328/254/1
f 99/253/1 109/203/1 330/255/1 329/256/1
f 109/203/1 110/208/1 331/257/1 330/255/1
f 110/208/1 100/258/1 332/259/1 331/257/1
f 100/258/1 99/253/1 329/256/1 332/259/1
f 100/258/1 110/208/1 334/260/1 333/261/1
f 110/208/1 111/213/1 335/262/1 334/260/1
f 111/213/1 101/263/1 336/264/1 335/262/1
f 101/263/1 100/258/1 333/261/1 336/264/1
f 101/263/1 111/213/1 338/265/1 337/266/1
f 111/213/1 112/218/1 339/267/1 338/265/1
f 112/218/1 102/268/1 340/269/1 339/267/1
f 102/268/1 101/263/1 337/266/1 340/269/1
f 102/268/1 112/218/1 342/270/1 341/271/1
f 112/218/1 113/223/1 343/272/1 342/270/1
f 113/223/1 103/273/1 344/274/1 343/272/1
f 103/273/1 102/268/1 341/271/1 344/274/1
f 103/273/1 113/223/1 346/275/1 345/276/1
f 113/223/1 114/47/1 347/277/1 346/275/1
f 114/47/1 104/41/1 348/278/1 347/277/1
f 104/41/1 103/273/1 345/276/1 348/278/1
f 9/279/1 10/229/1 350/280/1 349/281/1
f 10/229/1 95/233/1 351/282/1 350/280/1
f 95/233/1 85/283/1 352/284/1 351/282/1
f 85/283/1 9/279/1 349/281/1 352/284/1
f 85/283/1 95/233/1 354/285/1 353/286/1
f 95/233/1 96/238/1 355/287/1 354/285/1
f 96/238/1 86/288/1 356/289/1 355/287/1
f 86/288/1 85/283/1 353/286/1 356/289/1
f 86/288/1 96/238/1 358/290/1 357/291/1
f 96/238/1 97/243/1 359/292/1 358/290/1
f 97/243/1 87/293/1 360/294/1 359/292/1
f 87/293/1 86/288/1 357/291/1 360/294/1
f 87/293/1 97/243/1 362/295/1 361/296/1
f 97/243/1 98/248/1 363/297/1 362/295/1
f 98/248/1 88/298/1 364/299/1 363/297/1
f 88/298/1 87/293/1 361/296/1 364/299/1
f 88/298/1 98/248/1 366/300/1 365/301/1
f 98/248/1 99/253/1 367/302/1 366/300/1
f 99/253/1 89/303/1 368/304/1 367/302/1
f 89/303/1 88/298/1 365/301/1 368/304/1
f 89/303/1 99/253/1 370/305/1 369/306/1
f 99/253/1 100/258/1 371/307/1 370/305/1
f 100/258/1 90/308/1 372/309/1 371/307/1
f 90/308/1 89/303/1 369/306/1 372/309/1
f 90/308/1 100/258/1 374/310/1 373/311/1
f 100/258/1 101/263/1 375/312/1 374/310/1
f 101/263/1 91/313/1 376/314/1 375/312/1
f 91/313/1 90/308/1 373/311/1 376/314/1
f 91/313/1 101/263/1 378/315/1 377/316/1
f 101/263/1 102/268/1 379/317/1 378/315/1
f 102/268/1 92/318/1 380/319/1 379/317/1
f 92/318/1 91/313/1 377/316/1 380/319/1
f 92/318/1 102/268/1 382/320/1 381/321/1
f 102/268/1 103/273/1 383/322/1 382/320/1
f 103/273/1 93/323/1 384/324/1 383/322/1
f 93/323/1 92/318/1 381/321/1 384/324/1
f 93/323/1 103/273/1 386/325/1 385/326/1
f 103/273/1 104/41/1 387/327/1 386/325/1
f 104/41/1 94/35/1 388/328/1 387/327/1
f 94/35/1 93/323/1 385/326/1 388/328/1
f 8/329/1 9/279/1 390/330/1 389/331/1
f 9/279/1 85/283/1 391/332/1 390/330/1
f 85/283/1 75/333/1 392/334/1 391/332/1
f 75/333/1 8/329/1 389/331/1 392/334/1
f 75/333/1 85/283/1 394/335/1 393/336/1
f 85/283/1 86/288/1 395/337/1 394/335/1
f 86/288/1 76/338/1 396/339/1 395/337/1
f 76/338/1 75/333/1 393/336/1 396/339/1
f 76/338/1 86/288/1 398/340/1 397/341/1
f 86/288/1 87/293/1 399/342/1 398/340/1
f 87/293/1 77/343/1 400/344/1 399/342/1
f 77/343/1 76/338/1 397/341/1 400/344/1
f 77/343/1 87/293/1 402/345/1 401/346/1
f 87/293/1 88/298/1 403/347/1 402/345/1
f 88/298/1 78/348/1 404/349/1 403/347/1
f 78/348/1 77/343/1 401/346/1 404/349/1
f 78/348/1 88/298/1 406/350/1 405/351/1
f 88/298/1 89/303/1 407/352/1 406/350/1
f 89/303/1 79/353/1 408/354/1 407/352/1
f 79/353/1 78/348/1 405/351/1 408/354/1
f 79/353/1 89/303/1 410/355/1 409/356/1
f 89/303/1 90/308/1 411/357/1 410/355/1
f 90/308/1 80/358/1 412/359/1 411/357/1
f 80/358/1 79/353/1 409/356/1 412/359/1
f 80/358/1 90/308/1 414/360/1 413/361/1
f 90/308/1 91/313/1 415/362/1 414/360/1
f 91/313/1 81/363/1 416/364/1 415/362/1
f 81/363/1 80/358/1 413/361/1 416/364/1
f 81/363/1 91/313/1 418/365/1 417/366/1
f 91/313/1 92/318/1 419/367/1 418/365/1
f 92/318/1 82/368/1 420/369/1 419/367/1
f 82/368/1 81/363/1 417/366/1 420/369/1
f 82/368/1 92/318/1 422/370/1 421/371/1
f 92/318/1 93/323/1 423/372/1 422/370/1
f 93/323/1 83/373/1 424/374/1 423/372/1
f 83/373/1 82/368/1 421/371/1 424/374/1
f 83/373/1 93/323/1 426/375/1 425/376/1
f 93/323/1 94/35/1 427/377/1 426/375/1
f 94/35/1 84/29/1 428/378/1 427/377/1
f 84/29/1 83/373/1 425/376/1 428/378/1
f 7/379/1 8/329/1 430/380/1 429/381/1
f 8/329/1 75/333/1 431/382/1 430/380/1
f 75/333/1 65/383/1 432/384/1 431/382/1
f 65/383/1 7/379/1 429/381/1 432/384/1
f 65/383/1 75/333/1 434/385/1 433/386/1
f 75/333/1 76/338/1 435/387/1 434/385/1
f 76/338/1 66/388/1 436/389/1 435/387/1
f 66/388/1 65/383/1 433/386/1 436/389/1
f 66/388/1 76/338/1 438/390/1 437/391/1
f 76/338/1 77/343/1 439/392/1 438/390/1
f 77/343/1 67/393/1 440/394/1 439/392/1
f 67/393/1 66/388/1 437/391/1 440/394/1
f 67/393/1 77/343/1 442/395/1 441/396/1
f 77/343/1 78/348/1 443/397/1 442/395/1
f 78/348/1 68/398/1 444/399/1 443/397/1
f 68/398/1 67/393/1 441/396/1 444/399/1
f 68/398/1 78/348/1 446/400/1 445/401/1
f 78/348/1 79/353/1 447/402/1 446/400/1
f 79/353/1 69/403/1 448/404/1 447/402/1
f 69/403/1 68/398/1 445/401/1 448/404/1
f 69/403/1 79/353/1 450/405/1 449/406/1
f 79/353/1 80/358/1 451/407/1 450/405/1
f 80/358/1 70/408/1 452/409/1 451/407/1
f 70/408/1 69/403/1 449/406/1 452/409/1
f 70/408/1 80/358/1 454/410/1 453/411/1
f 80/358/1 81/363/1 455/412/1 454/410/1
f 81/363/1 71/413/1 456/414/1 455/412/1
f 71/413/1 70/408/1 453/411/1 456/414/1
f 71/413/1 81/363/1 458/415/1 457/416/1
f 81/363/1 82/368/1 459/417/1 458/415/1
f 82/368/1 72/418/1 460/419/1 459/417/1
f 72/418/1 71/413/1 457/416/1 460/419/1
f 72/418/1 82/368/1 462/420/1 461/421/1
f 82/368/1 83/373/1 463/422/1 462/420/1
f 83/373/1 73/423/1 464/424/1 463/422/1
f 73/423/1 72/418/1 461/421/1 464/424/1
f 73/423/1 83/373/1 466/425/1 465/426/1
f 83/373/1 84/29/1 467/427/1 466/425/1
f 84/29/1 74/23/1 468/428/1 467/427/1
f 74/23/1 73/423/1 465/426/1 468/428/1
f 6/429/1 7/379/1 470/430/1 469/431/1
f 7/379/1 65/383/1 471/432/1 470/430/1
f 65/383/1 55/433/1 472/434/1 471/432/1
f 55/433/1 6/429/1 469/431/1 472/434/1
f 55/433/1 65/383/1 474/435/1 473/436/1
f 65/383/1 66/388/1 475/437/1 474/435/1
f 66/388/1 56/438/1 476/439/1 475/437/1
f 56/438/1 55/433/1 473/436/1 476/439/1
f 56/438/1 66/388/1 478/440/1 477/441/1
f 66/388/1 67/393/1 479/442/1 478/440/1
f 67/393/1 57/443/1 480/444/1 479/442/1
f 57/443/1 56/438/1 477/441/1 480/444/1
f 57/443/1 67/393/1 482/445/1 481/446/1
f 67/393/1 68/398/1 483/447/1 482/445/1
f 68/398/1 58/448/1 484/449/1 483/447/1
f 58/448/1 57/443/1 481/446/1 484/449/1
f 58/448/1 68/398/1 486/450/1 485/451/1
f 68/398/1 69/403/1 487/452/1 486/450/1
f 69/403/1 59/453/1 488/454/1 487/452/1
f 59/453/1 58/448/1 485/451/1 488/454/1
f 59/453/1 69/403/1 490/455/1 489/456/1
f 69/403/1 70/408/1 491/457/1 490/455/1
f 70/408/1 60/458/1 492/459/1 491/457/1
f 60/458/1 59/453/1 489/456/1 492/459/1
f 60/458/1 70/408/1 494/460/1 493/461/1
f 70/408/1 71/413/1 495/462/1 494/460/1
f 71/413/1 61/463/1 496/464/1 495/462/1
f 61/463/1 60/458/1 493/461/1 496/464/1
f 61/463/1 71/413/1 498/465/1 497/466/1
f 71/413/1 72/418/1 499/467/1 498/465/1
f 72/418/1 62/468/1 500/469/1 499/467/1
f 62/468/1 61/463/1 497/466/1 500/469/1
f 62/468/1 72/418/1 502/470/1 501/471/1
f 72/418/1 73/423/1 503/472/1 502/470/1
f 73/423/1 63/473/1 504/474/1 503/472/1
f 63/473/1 62/468/1 501/471/1 504/474/1
f 63/473/1 73/423/1 506/475/1 505/476/1
f 73/423/1 74/23/1 507/477/1 506/475/1
f 74/23/1 64/17/1 508/478/1 507/477/1
f 64/17/1 63/473/1 505/476/1 508/478/1
f 5/479/1 6/429/1 510/480/1 509/481/1
f 6/429/1 55/433/1 511/482/1 510/480/1
f 55/433/1 45/483/1 512/484/1 511/482/1
f 45/483/1 5/479/1 509/481/1 512/484/1
f 45/483/1 55/433/1 514/485/1 513/486/1
f 55/433/1 56/438/1 515/487/1 514/485/1
f 56/438/1 46/488/1 516/489/1 515/487/1
f 46/488/1 45/483/1 513/486/1 516/489/1
f 46/488/1 56/438/1 518/490/1 517/491/1
f 56/438/1 57/443/1 519/492/1 518/490/1
f 57/443/1 47/493/1 520/494/1 519/492/1
f 47/493/1 46/488/1 517/491/1 520/494/1
f 47/493/1 57/443/1 522/495/1 521/496/1
f 57/443/1 58/448/1 523/497/1 522/495/1
f 58/448/1 48/498/1 524/499/1 523/497/1
f 48/498/1 47/493/1 521/496/1 524/499/1
f 48/498/1 58/448/1 526/500/1 525/501/1
f 58/448/1 59/453/1 527/502/1 526/500/1
f 59/453/1 49/503/1 528/504/1 527/502/1
f 49/503/1 48/498/1 525/501/1 528/504/1
f 49/503/1 59/453/1 530/505/1 529/506/1
f 59/453/1 60/458/1 531/507/1 530/505/1
f 60/458/1 50/508/1 532/509/1 531/507/1
f 50/508/1 49/503/1 529/506/1 532/509/1
f 50/508/1 60/458/1 534/510/1 533/511/1
f 60/458/1 61/463/1 535/512/1 534/510/1
f 61/463/1 51/513/1 536/514/1 535/512/1
f 51/513/1 50/508/1 533/511/1 536/514/1
f 51/513/1 61/463/1 538/515/1 537/516/1
f 61/463/1 62/468/1 539/517/1 538/515/1
f 62/468/1 52/518/1 540/519/1 539/517/1
f 52/518/1 51/513/1 537/516/1 540/519/1
f 52/518/1 62/468/1 542/520/1 541/521/1
f 62/468/1 63/473/1 543/522/1 542/520/1
f 63/473/1 53/523/1 544/524/1 543/522/1
f 53/523/1 52/518/1 541/521/1 544/524/1
f 53/523/1 63/473/1 546/525/1 545/526/1
f 63/473/1 64/17/1 547/527/1 546/525/1
f 64/17/1 54/10/1 548/528/1 547/527/1
f 54/10/1 53/523/1 545/526/1 548/528/1
f 1/529/1 5/479/1 550/530/1 549/531/1
f 5/479/1 45/483/1 551/532/1 550/530/1
f 45/483/1 34/533/1 552/534/1 551/532/1
f 34/533/1 1/529/1 549/531/1 552/534/1
f 34/533/1 45/483/1 554/535/1 553/536/1
f 45/483/1 46/488/1 555/537/1 554/535/1
f 46/488/1 33/538/1 556/539/1 555/537/1
f 33/538/1 34/533/1 553/536/1 556/539/1
f 33/538/1 46/488/1 558/540/1 557/541/1
f 46/488/1 47/493/1 559/542/1 558/540/1
f 47/493/1 32/543/1 560/544/1 559/542/1
f 32/543/1 33/538/1 557/541/1 560/544/1
f 32/543/1 47/493/1 562/545/1 561/546/1
f 47/493/1 48/498/1 563/547/1 562/545/1
f 48/498/1 31/548/1 564/549/1 563/547/1
f 31/548/1 32/543/1 561/546/1 564/549/1
f 31/548/1 48/498/1 566/550/1 565/551/1
f 48/498/1 49/503/1 567/552/1 566/550/1
f 49/503/1 30/553/1 568/554/1 567/552/1
f 30/553/1 31/548/1 565/551/1 568/554/1
f 30/553/1 49/503/1 570/555/1 569/556/1
f 49/503/1 50/508/1 571/557/1 570/555/1
f 50/508/1 29/558/1 572/559/1 571/557/1
f 29/558/1 30/553/1 569/556/1 572/559/1
f 29/558/1 50/508/1 574/560/1 573/561/1
f 50/508/1 51/513/1 575/562/1 574/560/1
f 51/513/1 28/563/1 576/564/1 575/562/1
f 28/563/1 29/558/1 573/561/1 576/564/1
f 28/563/1 51/513/1 578/565/1 577/566/1
f 51/513/1 52/518/1 579/567/1 578/565/1
f 52/518/1 27/568/1 580/569/1 579/567/1
f 27/568/1 28/563/1 577/566/1 580/569/1
f 27/568/1 52/518/1 582/570/1 581/571/1
f 52/518/1 53/523/1 583/572/1 582/570/1
f 53/523/1 26/573/1 584/574/1 583/572/1
f 26/573/1 27/568/1 581/571/1 584/574/1
f 26/573/1 53/523/1 586/575/1 585/576/1
f 53/523/1 54/10/1 587/577/1 586/575/1
f 54/10/1 25/9/1 588/578/1 587/577/1
f 25/9/1 26/573/1 585/576/1 588/578/1
f 14/70/1 2/579/1 590/580/1 589/581/1
f 2/579/1 35/582/1 591/583/1 590/580/1
f 35/582/1 135/73/1 592/584/1 591/583/1
f 135/73/1 14/70/1 589/581/1 592/584/1
f 135/73/1 35/582/1 594/585/1 593/586/1
f 35/582/1 36/587/1 595/588/1 594/585/1
f 36/587/1 136/79/1 596/589/1 595/588/1
f 136/79/1 135/73/1 593/586/1 596/589/1
f 136/79/1 36/587/1 598/590/1 597/591/1
f 36/587/1 37/592/1 599/593/1 598/590/1
f 37/592/1 137/85/1 600/594/1 599/593/1
f 137/85/1 136/79/1 597/591/1 600/594/1
f 137/85/1 37/592/1 602/595/1 601/596/1
f 37/592/1 38/597/1 603/598/1 602/595/1
f 38/597/1 138/91/1 604/599/1 603/598/1
f 138/91/1 137/85/1 601/596/1 604/599/1
f 138/91/1 38/597/1 606/600/1 605/601/1
f 38/597/1 39/602/1 607/603/1 606/600/1
f 39/602/1 139/97/1 608/604/1 607/603/1
f 139/97/1 138/91/1 605/601/1 608/604/1
f 139/97/1 39/602/1 610/605/1 609/606/1
f 39/602/1 40/607/1 611/608/1 610/605/1
f 40/607/1 140/103/1 612/609/1 611/608/1
f 140/103/1 139/97/1 609/606/1 612/609/1
f 140/103/1 40/607/1 614/610/1 613/611/1
f 40/607/1 41/612/1 615/613/1 614/610/1
f 41/612/1 141/109/1 616/614/1 615/613/1
f 141/109/1 140/103/1 613/611/1 616/614/1
f 141/109/1 41/612/1 618/615/1 617/616/1
f 41/612/1 42/617/1 619/618/1 618/615/1
f 42/617/1 142/115/1 620/619/1 619/618/1
f 142/115/1 141/109/1 617/616/1 620/619/1
f 142/115/1 42/617/1 622/620/1 621/621/1
f 42/617/1 43/622/1 623/623/1 622/620/1
f 43/622/1 143/121/1 624/624/1 623/623/1
f 143/121/1 142/115/1 621/621/1 624/624/1
f 143/121/1 43/622/1 626/625/1 625/626/1
f 43/622/1 44/2/1 627/627/1 626/625/1
f 44/2/1 144/1/1 628/628/1 627/627/1
f 144/1/1 143/121/1 625/626/1 628/628/1
