# Blender 5.1.1
# www.blender.org
mtllib pyramid.mtl
o Cone
v 0.014907 0.023353 -0.973418
v 0.000000 0.000003 -0.971716
v -0.011765 0.023533 -0.976469
v 0.013144 0.011727 -0.976664
v 0.005786 0.025204 -0.978081
v 0.004423 0.012792 -0.982238
v -0.006959 0.003450 -0.976837
v 0.007783 0.003418 -0.976018
v 0.000497 0.006158 -0.981776
v -0.003877 0.025257 -0.979162
v -0.011189 0.011804 -0.978569
v -0.003134 0.012785 -0.982811
v 0.976469 0.023533 -0.011765
v 0.973418 0.023353 0.014907
v 0.971716 0.000003 0.000000
v 0.979162 0.025257 -0.003877
v 0.978569 0.011804 -0.011189
v 0.982811 0.012785 -0.003134
v 0.976664 0.011727 0.013144
v 0.978081 0.025204 0.005786
v 0.982238 0.012792 0.004423
v 0.976837 0.003450 -0.006959
v 0.976018 0.003418 0.007783
v 0.981776 0.006158 0.000497
v 0.011765 0.023533 0.976469
v -0.014907 0.023353 0.973418
v 0.000000 0.000003 0.971716
v 0.003877 0.025257 0.979162
v 0.011189 0.011804 0.978569
v 0.003134 0.012785 0.982811
v -0.013144 0.011727 0.976664
v -0.005786 0.025204 0.978081
v -0.004423 0.012792 0.982238
v 0.006959 0.003450 0.976836
v -0.007783 0.003418 0.976018
v -0.000497 0.006158 0.981776
v -0.976469 0.023533 0.011765
v -0.973418 0.023353 -0.014907
v -0.971716 0.000003 0.000000
v -0.979162 0.025257 0.003877
v -0.978569 0.011804 0.011189
v -0.982811 0.012785 0.003134
v -0.976664 0.011727 -0.013144
v -0.978081 0.025204 -0.005786
v -0.982238 0.012792 -0.004423
v -0.976836 0.003450 0.006959
v -0.976018 0.003418 -0.007783
v -0.981776 0.006158 -0.000497
v -0.012206 1.945776 -0.014907
v -0.014907 1.945776 0.012206
v 0.012206 1.945776 0.014907
v 0.014907 1.945776 -0.012206
v -0.016812 1.947604 -0.005731
v -0.004089 1.947593 -0.017769
v -0.005491 1.959025 -0.005938
v -0.005731 1.947604 0.016812
v -0.017769 1.947593 0.004089
v -0.005938 1.959025 0.005491
v 0.016812 1.947604 0.005731
v 0.004089 1.947593 0.017769
v 0.005491 1.959025 0.005938
v 0.005731 1.947604 -0.016812
v 0.017769 1.947593 -0.004089
v 0.005938 1.959025 -0.005491
v 0.012098 1.000003 0.487902
v -0.014907 0.994040 0.488074
v 0.004052 0.999204 0.492353
v -0.005833 0.997021 0.492416
v 0.014907 0.994040 -0.488074
v -0.012098 1.000003 -0.487902
v 0.005833 0.997021 -0.492416
v -0.004052 0.999204 -0.492353
v 0.487902 1.000003 -0.012098
v 0.488074 0.994040 0.014907
v 0.492353 0.999204 -0.004052
v 0.492416 0.997021 0.005833
v -0.487902 1.000003 0.012098
v -0.488074 0.994040 -0.014907
v -0.492353 0.999204 0.004052
v -0.492416 0.997021 -0.005833
vn 0.5118 0.1913 -0.8375
vn 0.4812 -0.3583 -0.8000
vn 0.0271 -0.8533 -0.5207
vn -0.4072 -0.3681 -0.8359
vn -0.4184 0.1882 -0.8885
vn 0.0921 0.2959 -0.9508
vn 0.0752 -0.1135 -0.9907
vn 0.8885 0.1882 -0.4184
vn 0.9508 0.2959 0.0921
vn 0.8375 0.1913 0.5118
vn 0.8000 -0.3583 0.4812
vn 0.5207 -0.8533 0.0271
vn 0.8359 -0.3681 -0.4072
vn 0.9907 -0.1135 0.0752
vn 0.4184 0.1882 0.8885
vn -0.0921 0.2959 0.9508
vn -0.5118 0.1913 0.8375
vn -0.4812 -0.3583 0.8000
vn -0.0271 -0.8533 0.5207
vn 0.4072 -0.3681 0.8359
vn -0.0752 -0.1135 0.9907
vn -0.8885 0.1882 0.4184
vn -0.9508 0.2959 -0.0921
vn -0.8375 0.1913 -0.5118
vn -0.8000 -0.3583 -0.4812
vn -0.5207 -0.8533 -0.0271
vn -0.8359 -0.3681 0.4072
vn -0.9907 -0.1135 -0.0753
vn -0.5260 0.6433 -0.5564
vn -0.7005 0.7121 -0.0459
vn -0.5564 0.6433 0.5259
vn -0.0459 0.7121 0.7005
vn 0.5259 0.6433 0.5564
vn 0.7006 0.7121 0.0459
vn 0.5564 0.6432 -0.5259
vn 0.0459 0.7121 -0.7006
vn -0.0000 1.0000 -0.0000
vn 0.7042 0.0906 -0.7042
vn 0.6305 -0.4528 -0.6304
vn 0.2635 -0.9280 -0.2635
vn -0.3972 0.4106 -0.8208
vn 0.0895 0.4457 -0.8907
vn 0.4862 0.3909 -0.7815
vn 0.7799 0.3899 0.4896
vn 0.8903 0.4450 0.0972
vn 0.8226 0.4113 -0.3927
vn 0.7042 0.0906 0.7042
vn 0.6304 -0.4528 0.6305
vn 0.2635 -0.9280 0.2635
vn -0.4896 0.3899 0.7799
vn -0.0972 0.4449 0.8903
vn 0.3927 0.4113 0.8226
vn -0.7042 0.0906 0.7042
vn -0.6305 -0.4528 0.6304
vn -0.2635 -0.9280 0.2635
vn -0.7799 0.3899 -0.4896
vn -0.8903 0.4450 -0.0972
vn -0.8226 0.4113 0.3927
vn -0.7042 0.0906 -0.7042
vn -0.6304 -0.4528 -0.6305
vn -0.2635 -0.9280 -0.2635
vn -0.4862 0.3909 0.7815
vn -0.0895 0.4457 0.8907
vn 0.3972 0.4106 0.8208
vn -0.3927 0.4113 -0.8226
vn 0.0972 0.4449 -0.8903
vn 0.4896 0.3899 -0.7799
vn 0.7815 0.3909 0.4862
vn 0.8907 0.4457 0.0895
vn 0.8208 0.4106 -0.3972
vn -0.7815 0.3909 -0.4862
vn -0.8907 0.4457 -0.0895
vn -0.8208 0.4106 0.3972
vn -0.0000 -1.0000 -0.0000
vn -0.6667 0.3333 -0.6667
vn 0.6667 0.3333 -0.6667
vn 0.6667 0.3333 0.6667
vn -0.6667 0.3333 0.6667
vt 0.253578 0.483620
vt 0.254378 0.485622
vt 0.250994 0.486792
vt 0.251765 0.485116
vt 0.754378 0.485622
vt 0.751868 0.484244
vt 0.750119 0.485626
vt 0.751061 0.485737
vt 0.750000 0.483212
vt 0.748330 0.484441
vt 0.746086 0.486086
vt 0.749248 0.485875
vt 0.247176 0.484353
vt 0.248607 0.485461
vt 0.248430 0.486692
vt 0.246086 0.486086
vt 0.248451 0.487295
vt 0.484353 0.252824
vt 0.485461 0.251393
vt 0.486915 0.250802
vt 0.486086 0.253914
vt 0.485116 0.248235
vt 0.486478 0.248198
vt 0.483620 0.246422
vt 0.485622 0.245622
vt 0.985622 0.245622
vt 0.984244 0.248132
vt 0.985626 0.249881
vt 0.985737 0.248939
vt 0.983212 0.250000
vt 0.984441 0.251670
vt 0.986086 0.253914
vt 0.985875 0.250752
vt 0.487189 0.248318
vt 0.252824 0.015647
vt 0.251393 0.014539
vt 0.250802 0.013085
vt 0.253914 0.013914
vt 0.248235 0.014884
vt 0.248198 0.013522
vt 0.246422 0.016380
vt 0.245622 0.014378
vt 0.745622 0.014378
vt 0.748132 0.015756
vt 0.749881 0.014374
vt 0.748939 0.014263
vt 0.750000 0.016788
vt 0.751670 0.015559
vt 0.753914 0.013914
vt 0.750752 0.014125
vt 0.248318 0.012811
vt 0.015647 0.247176
vt 0.014539 0.248607
vt 0.013308 0.248430
vt 0.013914 0.246086
vt 0.014884 0.251765
vt 0.013208 0.250994
vt 0.016380 0.253578
vt 0.014378 0.254378
vt 0.514378 0.254378
vt 0.515756 0.251868
vt 0.514374 0.250119
vt 0.514263 0.251061
vt 0.516788 0.250000
vt 0.515559 0.248330
vt 0.513914 0.246086
vt 0.514125 0.249248
vt 0.012705 0.248451
vt 0.247071 0.253578
vt 0.245575 0.251765
vt 0.247716 0.252391
vt 0.248555 0.254728
vt 0.245272 0.248555
vt 0.247609 0.247716
vt 0.246422 0.247071
vt 0.248235 0.245575
vt 0.251445 0.245272
vt 0.252284 0.247609
vt 0.252929 0.246422
vt 0.254425 0.248235
vt 0.254728 0.251445
vt 0.252391 0.252284
vt 0.253578 0.252929
vt 0.251765 0.254425
vt 0.247096 0.367096
vt 0.248601 0.368591
vt 0.251746 0.368526
vt 0.253578 0.367138
vt 0.367138 0.246422
vt 0.368526 0.248254
vt 0.368591 0.251399
vt 0.367096 0.252904
vt 0.246422 0.132862
vt 0.248254 0.131474
vt 0.251399 0.131409
vt 0.252904 0.132904
vt 0.132862 0.253578
vt 0.131474 0.251746
vt 0.131409 0.248601
vt 0.132904 0.247096
s 0
f 1/1/1 4/2/1 6/3/1 5/4/1
f 4/5/2 8/6/2 9/7/2 6/8/2
f 2/9/3 7/10/3 9/7/3 8/6/3
f 7/10/4 11/11/4 12/12/4 9/7/4
f 3/13/5 10/14/5 12/15/5 11/16/5
f 10/14/6 5/4/6 6/3/6 12/15/6
f 6/3/7 9/17/7 12/15/7
f 13/18/8 16/19/8 18/20/8 17/21/8
f 16/19/9 20/22/9 21/23/9 18/20/9
f 14/24/10 19/25/10 21/23/10 20/22/10
f 19/26/11 23/27/11 24/28/11 21/29/11
f 15/30/12 22/31/12 24/28/12 23/27/12
f 22/31/13 17/32/13 18/33/13 24/28/13
f 18/20/14 21/23/14 24/34/14
f 25/35/15 28/36/15 30/37/15 29/38/15
f 28/36/16 32/39/16 33/40/16 30/37/16
f 26/41/17 31/42/17 33/40/17 32/39/17
f 31/43/18 35/44/18 36/45/18 33/46/18
f 27/47/19 34/48/19 36/45/19 35/44/19
f 34/48/20 29/49/20 30/50/20 36/45/20
f 30/37/21 33/40/21 36/51/21
f 37/52/22 40/53/22 42/54/22 41/55/22
f 40/53/23 44/56/23 45/57/23 42/54/23
f 38/58/24 43/59/24 45/57/24 44/56/24
f 43/60/25 47/61/25 48/62/25 45/63/25
f 39/64/26 46/65/26 48/62/26 47/61/26
f 46/65/27 41/66/27 42/67/27 48/62/27
f 42/54/28 45/57/28 48/68/28
f 49/69/29 53/70/29 55/71/29 54/72/29
f 53/70/30 57/73/30 58/74/30 55/71/30
f 50/75/31 56/76/31 58/74/31 57/73/31
f 56/76/32 60/77/32 61/78/32 58/74/32
f 51/79/33 59/80/33 61/78/33 60/77/33
f 59/80/34 63/81/34 64/82/34 61/78/34
f 52/83/35 62/84/35 64/82/35 63/81/35
f 62/84/36 54/72/36 55/71/36 64/82/36
f 55/71/37 58/74/37 61/78/37 64/82/37
f 1/1/38 13/18/38 17/21/38 4/2/38
f 4/5/39 17/32/39 22/31/39 8/6/39
f 8/6/40 22/31/40 15/30/40 2/9/40
f 70/85/41 49/69/41 54/72/41 72/86/41
f 72/86/42 54/72/42 62/84/42 71/87/42
f 71/87/43 62/84/43 52/83/43 69/88/43
f 74/89/44 14/24/44 20/22/44 76/90/44
f 76/90/45 20/22/45 16/19/45 75/91/45
f 75/91/46 16/19/46 13/18/46 73/92/46
f 14/24/47 25/35/47 29/38/47 19/25/47
f 19/26/48 29/49/48 34/48/48 23/27/48
f 23/27/49 34/48/49 27/47/49 15/30/49
f 66/93/50 26/41/50 32/39/50 68/94/50
f 68/94/51 32/39/51 28/36/51 67/95/51
f 67/95/52 28/36/52 25/35/52 65/96/52
f 26/41/53 37/52/53 41/55/53 31/42/53
f 31/43/54 41/66/54 46/65/54 35/44/54
f 35/44/55 46/65/55 39/64/55 27/47/55
f 78/97/56 38/58/56 44/56/56 80/98/56
f 80/98/57 44/56/57 40/53/57 79/99/57
f 79/99/58 40/53/58 37/52/58 77/100/58
f 38/58/59 3/13/59 11/16/59 43/59/59
f 43/60/60 11/11/60 7/10/60 47/61/60
f 47/61/61 7/10/61 2/9/61 39/64/61
f 50/75/62 66/93/62 68/94/62 56/76/62
f 56/76/63 68/94/63 67/95/63 60/77/63
f 60/77/64 67/95/64 65/96/64 51/79/64
f 3/13/65 70/85/65 72/86/65 10/14/65
f 10/14/66 72/86/66 71/87/66 5/4/66
f 5/4/67 71/87/67 69/88/67 1/1/67
f 51/79/68 74/89/68 76/90/68 59/80/68
f 59/80/69 76/90/69 75/91/69 63/81/69
f 63/81/70 75/91/70 73/92/70 52/83/70
f 49/69/71 78/97/71 80/98/71 53/70/71
f 53/70/72 80/98/72 79/99/72 57/73/72
f 57/73/73 79/99/73 77/100/73 50/75/73
f 15/30/74 39/64/74 2/9/74
f 78/97/75 3/13/75 38/58/75
f 69/88/76 13/18/76 1/1/76
f 78/97/75 70/85/75 3/13/75
f 74/89/77 25/35/77 14/24/77
f 15/30/74 27/47/74 39/64/74
f 69/88/76 73/92/76 13/18/76
f 74/89/77 65/96/77 25/35/77
f 66/93/78 37/52/78 26/41/78
f 66/93/78 77/100/78 37/52/78
f 70/85/75 78/97/75 49/69/75
f 65/96/77 74/89/77 51/79/77
f 73/92/76 69/88/76 52/83/76
f 77/100/78 66/93/78 50/75/78
