# Blender 5.1.1
# www.blender.org
mtllib cube.mtl
o Cube
v 0.000000 -1.000000 0.000000
v 0.000000 1.000000 0.000000
v 1.000000 0.000000 0.000000
v -1.000000 0.000000 0.000000
v 0.000000 0.000000 -1.000000
v 0.000000 0.000000 1.000000
v 0.900000 0.900000 -1.000000
v 0.900000 1.000000 -0.900000
v 1.000000 0.900000 -0.900000
v 0.900000 0.949934 -0.986640
v 0.949934 0.900000 -0.986640
v 0.947821 0.947821 -0.973663
v 0.949934 0.986640 -0.900000
v 0.900000 0.986640 -0.949934
v 0.947821 0.973663 -0.947821
v 0.986640 0.900000 -0.949934
v 0.986640 0.949934 -0.900000
v 0.973663 0.947821 -0.947821
v 0.900000 -0.900000 -1.000000
v 1.000000 -0.900000 -0.900000
v 0.900000 -1.000000 -0.900000
v 0.949934 -0.900000 -0.986640
v 0.900000 -0.949934 -0.986640
v 0.947821 -0.947821 -0.973663
v 0.986640 -0.949934 -0.900000
v 0.986640 -0.900000 -0.949934
v 0.973663 -0.947821 -0.947821
v 0.900000 -0.986640 -0.949934
v 0.949934 -0.986640 -0.900000
v 0.947821 -0.973663 -0.947821
v 1.000000 0.900000 0.900000
v 0.900000 1.000000 0.900000
v 0.900000 0.900000 1.000000
v 0.986640 0.949934 0.900000
v 0.986640 0.900000 0.949934
v 0.973663 0.947821 0.947821
v 0.900000 0.986640 0.949934
v 0.949934 0.986640 0.900000
v 0.947821 0.973663 0.947821
v 0.949934 0.900000 0.986640
v 0.900000 0.949934 0.986640
v 0.947821 0.947821 0.973663
v 1.000000 -0.900000 0.900000
v 0.900000 -0.900000 1.000000
v 0.900000 -1.000000 0.900000
v 0.986640 -0.900000 0.949934
v 0.986640 -0.949934 0.900000
v 0.973663 -0.947821 0.947821
v 0.900000 -0.949934 0.986640
v 0.949934 -0.900000 0.986640
v 0.947821 -0.947821 0.973663
v 0.949934 -0.986640 0.900000
v 0.900000 -0.986640 0.949934
v 0.947821 -0.973663 0.947821
v -1.000000 0.900000 -0.900000
v -0.900000 1.000000 -0.900000
v -0.900000 0.900000 -1.000000
v -0.986640 0.949934 -0.900000
v -0.986640 0.900000 -0.949934
v -0.973663 0.947821 -0.947821
v -0.900000 0.986640 -0.949934
v -0.949934 0.986640 -0.900000
v -0.947821 0.973663 -0.947821
v -0.949934 0.900000 -0.986640
v -0.900000 0.949934 -0.986640
v -0.947821 0.947821 -0.973663
v -0.900000 -1.000000 -0.900000
v -1.000000 -0.900000 -0.900000
v -0.900000 -0.900000 -1.000000
v -0.949934 -0.986640 -0.900000
v -0.900000 -0.986640 -0.949934
v -0.947821 -0.973663 -0.947821
v -0.986640 -0.900000 -0.949934
v -0.986640 -0.949934 -0.900000
v -0.973663 -0.947821 -0.947821
v -0.900000 -0.949934 -0.986640
v -0.949934 -0.900000 -0.986640
v -0.947821 -0.947821 -0.973663
v -1.000000 0.900000 0.900000
v -0.900000 0.900000 1.000000
v -0.900000 1.000000 0.900000
v -0.986640 0.900000 0.949934
v -0.986640 0.949934 0.900000
v -0.973663 0.947821 0.947821
v -0.900000 0.949934 0.986640
v -0.949934 0.900000 0.986640
v -0.947821 0.947821 0.973663
v -0.949934 0.986640 0.900000
v -0.900000 0.986640 0.949934
v -0.947821 0.973663 0.947821
v -1.000000 -0.900000 0.900000
v -0.900000 -1.000000 0.900000
v -0.900000 -0.900000 1.000000
v -0.986640 -0.949934 0.900000
v -0.986640 -0.900000 0.949934
v -0.973663 -0.947821 0.947821
v -0.900000 -0.986640 0.949934
v -0.949934 -0.986640 0.900000
v -0.947821 -0.973663 0.947821
v -0.949934 -0.900000 0.986640
v -0.900000 -0.949934 0.986640
v -0.947821 -0.947821 0.973663
v -1.000000 -0.900000 0.000000
v -0.900000 -1.000000 0.000000
v -0.986603 -0.950000 0.000000
v -0.950000 -0.986603 0.000000
v 1.000000 0.900000 0.000000
v 0.900000 1.000000 0.000000
v 0.986603 0.950000 0.000000
v 0.950000 0.986603 0.000000
v -1.000000 0.900000 0.000000
v -0.900000 1.000000 0.000000
v -0.986603 0.950000 0.000000
v -0.950000 0.986603 0.000000
v 1.000000 -0.900000 0.000000
v 0.900000 -1.000000 0.000000
v 0.986603 -0.950000 0.000000
v 0.950000 -0.986603 0.000000
v 0.000000 -0.900000 -1.000000
v 0.000000 -1.000000 -0.900000
v 0.000000 -0.950000 -0.986603
v 0.000000 -0.986603 -0.950000
v 0.000000 0.900000 1.000000
v 0.000000 1.000000 0.900000
v 0.000000 0.950000 0.986603
v 0.000000 0.986603 0.950000
v 0.000000 -0.900000 1.000000
v 0.000000 -1.000000 0.900000
v 0.000000 -0.950000 0.986603
v 0.000000 -0.986603 0.950000
v 0.000000 0.900000 -1.000000
v 0.000000 1.000000 -0.900000
v 0.000000 0.950000 -0.986603
v 0.000000 0.986603 -0.950000
v 0.900000 0.000000 -1.000000
v 1.000000 0.000000 -0.900000
v 0.950000 0.000000 -0.986603
v 0.986603 0.000000 -0.950000
v -1.000000 0.000000 0.900000
v -0.900000 0.000000 1.000000
v -0.986603 0.000000 0.950000
v -0.950000 0.000000 0.986603
v 1.000000 0.000000 0.900000
v 0.900000 0.000000 1.000000
v 0.986603 0.000000 0.950000
v 0.950000 0.000000 0.986603
v -1.000000 0.000000 -0.900000
v -0.900000 0.000000 -1.000000
v -0.986603 0.000000 -0.950000
v -0.950000 0.000000 -0.986603
vn 0.2566 0.2566 -0.9318
vn 0.2178 0.6901 -0.6901
vn 0.2566 0.9318 -0.2566
vn 0.6901 0.6901 -0.2178
vn 0.9318 0.2566 -0.2566
vn 0.6901 0.2178 -0.6901
vn 0.5774 0.5774 -0.5774
vn 0.2566 -0.2566 -0.9318
vn 0.6901 -0.2178 -0.6901
vn 0.9318 -0.2566 -0.2566
vn 0.6901 -0.6901 -0.2178
vn 0.2566 -0.9318 -0.2566
vn 0.2178 -0.6901 -0.6901
vn 0.5774 -0.5774 -0.5774
vn 0.9318 0.2566 0.2566
vn 0.6901 0.6901 0.2178
vn 0.2566 0.9318 0.2566
vn 0.2178 0.6901 0.6901
vn 0.2566 0.2566 0.9318
vn 0.6901 0.2178 0.6901
vn 0.5774 0.5774 0.5774
vn 0.9318 -0.2566 0.2566
vn 0.6901 -0.2178 0.6901
vn 0.2566 -0.2566 0.9318
vn 0.2178 -0.6901 0.6901
vn 0.2566 -0.9318 0.2566
vn 0.6901 -0.6901 0.2178
vn 0.5774 -0.5774 0.5774
vn -0.9318 0.2566 -0.2566
vn -0.6901 0.6901 -0.2178
vn -0.2566 0.9318 -0.2566
vn -0.2178 0.6901 -0.6901
vn -0.2566 0.2566 -0.9318
vn -0.6901 0.2178 -0.6901
vn -0.5774 0.5774 -0.5774
vn -0.2566 -0.9318 -0.2566
vn -0.6901 -0.6901 -0.2178
vn -0.9318 -0.2566 -0.2566
vn -0.6901 -0.2178 -0.6901
vn -0.2566 -0.2566 -0.9318
vn -0.2178 -0.6901 -0.6901
vn -0.5774 -0.5774 -0.5774
vn -0.9318 0.2566 0.2566
vn -0.6901 0.2178 0.6901
vn -0.2566 0.2566 0.9318
vn -0.2178 0.6901 0.6901
vn -0.2566 0.9318 0.2566
vn -0.6901 0.6901 0.2178
vn -0.5774 0.5774 0.5774
vn -0.9318 -0.2566 0.2566
vn -0.6901 -0.6901 0.2178
vn -0.2566 -0.9318 0.2566
vn -0.2178 -0.6901 0.6901
vn -0.2566 -0.2566 0.9318
vn -0.6901 -0.2178 0.6901
vn -0.5774 -0.5774 0.5774
vn -0.2586 -0.9660 -0.0000
vn -0.7071 -0.7071 -0.0000
vn -0.9660 -0.2586 -0.0000
vn -0.0000 -0.9660 -0.2586
vn -0.0000 -0.7071 -0.7071
vn -0.0000 -0.2586 -0.9660
vn 0.9660 -0.0000 -0.2586
vn 0.7071 -0.0000 -0.7071
vn 0.2586 -0.0000 -0.9660
vn -0.2586 -0.0000 0.9660
vn -0.7071 -0.0000 0.7071
vn -0.9660 -0.0000 0.2586
vn 0.2586 -0.0000 0.9660
vn 0.7071 -0.0000 0.7071
vn 0.9660 -0.0000 0.2586
vn -0.2586 -0.0000 -0.9660
vn -0.7071 -0.0000 -0.7071
vn -0.9660 -0.0000 -0.2586
vn -0.0000 0.9660 0.2586
vn -0.0000 0.7071 0.7071
vn -0.0000 0.2586 0.9660
vn 0.2586 0.9660 -0.0000
vn 0.7071 0.7071 -0.0000
vn 0.9660 0.2586 -0.0000
vn -0.0000 -0.9660 0.2586
vn -0.0000 -0.7071 0.7071
vn -0.0000 -0.2586 0.9660
vn -0.2586 0.9660 -0.0000
vn -0.7071 0.7071 -0.0000
vn -0.9660 0.2586 -0.0000
vn -0.0000 0.9660 -0.2586
vn -0.0000 0.7071 -0.7071
vn -0.0000 0.2586 -0.9660
vn 0.2586 -0.9660 -0.0000
vn 0.7071 -0.7071 -0.0000
vn 0.9660 -0.2586 -0.0000
vn -0.0000 1.0000 -0.0000
vn 1.0000 -0.0000 -0.0000
vn -0.0000 -0.0000 -1.0000
vn -0.0000 -1.0000 -0.0000
vn -0.0000 -0.0000 1.0000
vn -1.0000 -0.0000 -0.0000
vt 0.612500 0.487500
vt 0.618742 0.487500
vt 0.618478 0.493478
vt 0.612500 0.493742
vt 0.631250 0.493750
vt 0.628261 0.496739
vt 0.637500 0.512500
vt 0.631258 0.512500
vt 0.618742 0.512500
vt 0.618478 0.504069
vt 0.612500 0.512500
vt 0.612500 0.506258
vt 0.387500 0.487500
vt 0.387500 0.493742
vt 0.371739 0.496739
vt 0.368750 0.493750
vt 0.387500 0.506258
vt 0.379069 0.506522
vt 0.387500 0.512500
vt 0.381258 0.512500
vt 0.368742 0.512500
vt 0.368478 0.506522
vt 0.362500 0.512500
vt 0.362500 0.506258
vt 0.612500 0.737500
vt 0.618742 0.737500
vt 0.618478 0.745931
vt 0.612500 0.743742
vt 0.631258 0.737500
vt 0.628261 0.753261
vt 0.637500 0.737500
vt 0.631250 0.756250
vt 0.618742 0.762500
vt 0.618478 0.756522
vt 0.612500 0.762500
vt 0.612500 0.756258
vt 0.387500 0.737500
vt 0.387500 0.743742
vt 0.379069 0.743478
vt 0.381258 0.737500
vt 0.387500 0.756258
vt 0.371739 0.753261
vt 0.387500 0.762500
vt 0.368750 0.756250
vt 0.362500 0.743742
vt 0.368478 0.743478
vt 0.362500 0.737500
vt 0.368742 0.737500
vt 0.612500 0.237500
vt 0.618742 0.237500
vt 0.618478 0.243478
vt 0.612500 0.243742
vt 0.625000 0.237500
vt 0.625000 0.245652
vt 0.862500 0.512500
vt 0.862500 0.500000
vt 0.875000 0.506522
vt 0.875000 0.512500
vt 0.625000 0.262500
vt 0.618742 0.262500
vt 0.618478 0.254069
vt 0.612500 0.262500
vt 0.612500 0.256258
vt 0.137500 0.512500
vt 0.131258 0.512500
vt 0.131522 0.506522
vt 0.137500 0.506258
vt 0.125000 0.512500
vt 0.125000 0.506522
vt 0.387500 0.237500
vt 0.387500 0.243742
vt 0.375000 0.243478
vt 0.375000 0.237500
vt 0.387500 0.256258
vt 0.375000 0.256522
vt 0.387500 0.262500
vt 0.375000 0.262500
vt 0.137500 0.500000
vt 0.131522 0.500000
vt 0.612500 0.012500
vt 0.612500 0.006258
vt 0.618478 0.006522
vt 0.618742 0.012500
vt 0.612500 0.000000
vt 0.618478 0.000000
vt 0.612500 0.987500
vt 0.618742 0.987500
vt 0.618478 1.000000
vt 0.612500 1.000000
vt 0.625000 0.987500
vt 0.625000 1.000000
vt 0.862500 0.737500
vt 0.875000 0.737500
vt 0.875000 0.743478
vt 0.862500 0.750000
vt 0.625000 0.012500
vt 0.625000 0.006522
vt 0.387500 0.012500
vt 0.375000 0.012500
vt 0.375000 0.006522
vt 0.387500 0.006258
vt 0.125000 0.737500
vt 0.131258 0.737500
vt 0.131522 0.743478
vt 0.125000 0.743478
vt 0.137500 0.737500
vt 0.137500 0.743742
vt 0.137500 0.750000
vt 0.131522 0.750000
vt 0.387500 0.987500
vt 0.387500 1.000000
vt 0.375000 0.993478
vt 0.375000 0.987500
vt 0.387500 0.000000
vt 0.375000 0.000000
vt 0.137500 0.625000
vt 0.131250 0.625000
vt 0.125000 0.625000
vt 0.375000 0.125000
vt 0.387500 0.125000
vt 0.250000 0.512500
vt 0.250000 0.506250
vt 0.250000 0.500000
vt 0.375000 0.375000
vt 0.387500 0.375000
vt 0.500000 0.512500
vt 0.500000 0.506250
vt 0.500000 0.493750
vt 0.500000 0.487500
vt 0.500000 0.987500
vt 0.500000 1.000000
vt 0.500000 0.000000
vt 0.500000 0.006250
vt 0.500000 0.012500
vt 0.500000 0.762500
vt 0.500000 0.756250
vt 0.500000 0.743750
vt 0.500000 0.737500
vt 0.500000 0.262500
vt 0.500000 0.256250
vt 0.500000 0.243750
vt 0.500000 0.237500
vt 0.750000 0.737500
vt 0.750000 0.750000
vt 0.625000 0.875000
vt 0.618750 0.875000
vt 0.612500 0.875000
vt 0.637500 0.625000
vt 0.631250 0.625000
vt 0.618750 0.625000
vt 0.612500 0.625000
vt 0.250000 0.737500
vt 0.250000 0.743750
vt 0.250000 0.750000
vt 0.375000 0.875000
vt 0.387500 0.875000
vt 0.862500 0.625000
vt 0.875000 0.625000
vt 0.625000 0.125000
vt 0.618750 0.125000
vt 0.612500 0.125000
vt 0.750000 0.512500
vt 0.750000 0.500000
vt 0.625000 0.375000
vt 0.618750 0.375000
vt 0.612500 0.375000
vt 0.362500 0.625000
vt 0.368750 0.625000
vt 0.381250 0.625000
vt 0.387500 0.625000
vt 0.750000 0.625000
vt 0.500000 0.625000
vt 0.500000 0.375000
vt 0.250000 0.625000
vt 0.500000 0.875000
vt 0.500000 0.125000
s 0
usemtl Material
f 7/1/1 10/2/1 12/3/1 11/4/1
f 10/2/2 14/5/2 15/6/2 12/3/2
f 8/7/3 13/8/3 15/6/3 14/5/3
f 13/8/4 17/9/4 18/10/4 15/6/4
f 9/11/5 16/12/5 18/10/5 17/9/5
f 16/12/6 11/4/6 12/3/6 18/10/6
f 12/3/7 15/6/7 18/10/7
f 19/13/8 22/14/8 24/15/8 23/16/8
f 22/14/9 26/17/9 27/18/9 24/15/9
f 20/19/10 25/20/10 27/18/10 26/17/10
f 25/20/11 29/21/11 30/22/11 27/18/11
f 21/23/12 28/24/12 30/22/12 29/21/12
f 28/24/13 23/16/13 24/15/13 30/22/13
f 24/15/14 27/18/14 30/22/14
f 31/25/15 34/26/15 36/27/15 35/28/15
f 34/26/16 38/29/16 39/30/16 36/27/16
f 32/31/17 37/32/17 39/30/17 38/29/17
f 37/32/18 41/33/18 42/34/18 39/30/18
f 33/35/19 40/36/19 42/34/19 41/33/19
f 40/36/20 35/28/20 36/27/20 42/34/20
f 36/27/21 39/30/21 42/34/21
f 43/37/22 46/38/22 48/39/22 47/40/22
f 46/38/23 50/41/23 51/42/23 48/39/23
f 44/43/24 49/44/24 51/42/24 50/41/24
f 49/44/25 53/45/25 54/46/25 51/42/25
f 45/47/26 52/48/26 54/46/26 53/45/26
f 52/48/27 47/40/27 48/39/27 54/46/27
f 48/39/28 51/42/28 54/46/28
f 55/49/29 58/50/29 60/51/29 59/52/29
f 58/50/30 62/53/30 63/54/30 60/51/30
f 56/55/31 61/56/31 63/57/31 62/58/31
f 61/59/32 65/60/32 66/61/32 63/54/32
f 57/62/33 64/63/33 66/61/33 65/60/33
f 64/63/34 59/52/34 60/51/34 66/61/34
f 60/51/35 63/54/35 66/61/35
f 67/64/36 70/65/36 72/66/36 71/67/36
f 70/65/37 74/68/37 75/69/37 72/66/37
f 68/70/38 73/71/38 75/72/38 74/73/38
f 73/71/39 77/74/39 78/75/39 75/72/39
f 69/76/40 76/77/40 78/75/40 77/74/40
f 76/78/41 71/67/41 72/66/41 78/79/41
f 72/66/42 75/69/42 78/79/42
f 79/80/43 82/81/43 84/82/43 83/83/43
f 82/81/44 86/84/44 87/85/44 84/82/44
f 80/86/45 85/87/45 87/88/45 86/89/45
f 85/87/46 89/90/46 90/91/46 87/88/46
f 81/92/47 88/93/47 90/94/47 89/95/47
f 88/96/48 83/83/48 84/82/48 90/97/48
f 84/82/49 87/85/49 90/97/49
f 91/98/50 94/99/50 96/100/50 95/101/50
f 94/102/51 98/103/51 99/104/51 96/105/51
f 92/106/52 97/107/52 99/104/52 98/103/52
f 97/107/53 101/108/53 102/109/53 99/104/53
f 93/110/54 100/111/54 102/112/54 101/113/54
f 100/114/55 95/101/55 96/100/55 102/115/55
f 96/105/56 99/104/56 102/109/56
f 104/116/57 92/106/57 98/103/57 106/117/57
f 106/117/58 98/103/58 94/102/58 105/118/58
f 105/119/59 94/99/59 91/98/59 103/120/59
f 120/121/60 67/64/60 71/67/60 122/122/60
f 122/122/61 71/67/61 76/78/61 121/123/61
f 121/124/62 76/77/62 69/76/62 119/125/62
f 136/126/63 20/19/63 26/17/63 138/127/63
f 138/127/64 26/17/64 22/14/64 137/128/64
f 137/128/65 22/14/65 19/13/65 135/129/65
f 140/130/66 80/86/66 86/89/66 142/131/66
f 142/132/67 86/84/67 82/81/67 141/133/67
f 141/133/68 82/81/68 79/80/68 139/134/68
f 144/135/69 44/43/69 50/41/69 146/136/69
f 146/136/70 50/41/70 46/38/70 145/137/70
f 145/137/71 46/38/71 43/37/71 143/138/71
f 148/139/72 69/76/72 77/74/72 150/140/72
f 150/140/73 77/74/73 73/71/73 149/141/73
f 149/141/74 73/71/74 68/70/74 147/142/74
f 124/143/75 81/92/75 89/95/75 126/144/75
f 126/145/76 89/90/76 85/87/76 125/146/76
f 125/146/77 85/87/77 80/86/77 123/147/77
f 108/148/78 32/31/78 38/29/78 110/149/78
f 110/149/79 38/29/79 34/26/79 109/150/79
f 109/150/80 34/26/80 31/25/80 107/151/80
f 128/152/81 45/47/81 53/45/81 130/153/81
f 130/153/82 53/45/82 49/44/82 129/154/82
f 129/155/83 49/44/83 44/43/83 127/156/83
f 112/157/84 56/55/84 62/58/84 114/158/84
f 114/159/85 62/53/85 58/50/85 113/160/85
f 113/160/86 58/50/86 55/49/86 111/161/86
f 132/162/87 8/7/87 14/5/87 134/163/87
f 134/164/88 14/5/88 10/2/88 133/165/88
f 133/165/89 10/2/89 7/1/89 131/166/89
f 116/167/90 21/23/90 29/21/90 118/168/90
f 118/168/91 29/21/91 25/20/91 117/169/91
f 117/169/92 25/20/92 20/19/92 115/170/92
f 67/64/57 104/116/57 106/117/57 70/65/57
f 70/65/58 106/117/58 105/118/58 74/68/58
f 74/73/59 105/119/59 103/120/59 68/70/59
f 8/7/78 108/148/78 110/149/78 13/8/78
f 13/8/79 110/149/79 109/150/79 17/9/79
f 17/9/80 109/150/80 107/151/80 9/11/80
f 81/92/84 112/157/84 114/158/84 88/93/84
f 88/96/85 114/159/85 113/160/85 83/83/85
f 83/83/86 113/160/86 111/161/86 79/80/86
f 45/47/90 116/167/90 118/168/90 52/48/90
f 52/48/91 118/168/91 117/169/91 47/40/91
f 47/40/92 117/169/92 115/170/92 43/37/92
f 21/23/60 120/121/60 122/122/60 28/24/60
f 28/24/61 122/122/61 121/123/61 23/16/61
f 23/16/62 121/124/62 119/125/62 19/13/62
f 32/31/75 124/143/75 126/144/75 37/32/75
f 37/32/76 126/145/76 125/146/76 41/33/76
f 41/33/77 125/146/77 123/147/77 33/35/77
f 92/106/81 128/152/81 130/153/81 97/107/81
f 97/107/82 130/153/82 129/154/82 101/108/82
f 101/113/83 129/155/83 127/156/83 93/110/83
f 56/55/87 132/162/87 134/163/87 61/56/87
f 61/59/88 134/164/88 133/165/88 65/60/88
f 65/60/89 133/165/89 131/166/89 57/62/89
f 9/11/63 136/126/63 138/127/63 16/12/63
f 16/12/64 138/127/64 137/128/64 11/4/64
f 11/4/65 137/128/65 135/129/65 7/1/65
f 93/110/66 140/130/66 142/131/66 100/111/66
f 100/114/67 142/132/67 141/133/67 95/101/67
f 95/101/68 141/133/68 139/134/68 91/98/68
f 33/35/69 144/135/69 146/136/69 40/36/69
f 40/36/70 146/136/70 145/137/70 35/28/70
f 35/28/71 145/137/71 143/138/71 31/25/71
f 57/62/72 148/139/72 150/140/72 64/63/72
f 64/63/73 150/140/73 149/141/73 59/52/73
f 59/52/74 149/141/74 147/142/74 55/49/74
f 8/7/93 132/162/93 2/171/93 108/148/93
f 136/126/94 9/11/94 107/151/94 3/172/94
f 5/173/95 131/166/95 7/1/95 135/129/95
f 119/125/95 5/173/95 135/129/95 19/13/95
f 20/19/94 136/126/94 3/172/94 115/170/94
f 120/121/96 21/23/96 116/167/96 1/174/96
f 108/148/93 2/171/93 124/143/93 32/31/93
f 144/135/97 33/35/97 123/147/97 6/175/97
f 3/172/94 107/151/94 31/25/94 143/138/94
f 115/170/94 3/172/94 143/138/94 43/37/94
f 44/43/97 144/135/97 6/175/97 127/156/97
f 1/174/96 116/167/96 45/47/96 128/152/96
f 132/162/93 56/55/93 112/157/93 2/171/93
f 148/139/95 57/62/95 131/166/95 5/173/95
f 4/176/98 111/161/98 55/49/98 147/142/98
f 69/76/95 148/139/95 5/173/95 119/125/95
f 103/120/98 4/176/98 147/142/98 68/70/98
f 67/64/96 120/121/96 1/174/96 104/116/96
f 139/134/98 79/80/98 111/161/98 4/176/98
f 6/175/97 123/147/97 80/86/97 140/130/97
f 2/171/93 112/157/93 81/92/93 124/143/93
f 91/98/98 139/134/98 4/176/98 103/120/98
f 104/116/96 1/174/96 128/152/96 92/106/96
f 127/156/97 6/175/97 140/130/97 93/110/97
