# Blender 5.1.1
# www.blender.org
mtllib cone.mtl
o Cone
v 0.000000 2.000350 0.000000
v 0.000000 0.000350 -0.869668
v 0.000000 0.116684 -0.941833
v 0.000000 0.015935 -0.927041
v 0.000000 0.058517 -0.953455
v 0.123767 0.000350 -0.860816
v 0.134037 0.116684 -0.932246
v 0.131932 0.015935 -0.917605
v 0.135691 0.058517 -0.943750
v 0.245014 0.000350 -0.834440
v 0.265345 0.116684 -0.903682
v 0.261178 0.015935 -0.889489
v 0.268619 0.058517 -0.914833
v 0.361273 0.000350 -0.791078
v 0.391251 0.116684 -0.856721
v 0.385107 0.015935 -0.843266
v 0.396080 0.058517 -0.867293
v 0.470178 0.000350 -0.731611
v 0.509193 0.116684 -0.792320
v 0.501196 0.015935 -0.779877
v 0.515477 0.058517 -0.802097
v 0.569511 0.000350 -0.657251
v 0.616769 0.116684 -0.711790
v 0.607083 0.015935 -0.700611
v 0.624380 0.058517 -0.720573
v 0.657251 0.000350 -0.569511
v 0.711790 0.116684 -0.616769
v 0.700611 0.015935 -0.607083
v 0.720573 0.058517 -0.624380
v 0.731611 0.000350 -0.470178
v 0.792320 0.116684 -0.509193
v 0.779877 0.015935 -0.501196
v 0.802097 0.058517 -0.515477
v 0.791078 0.000350 -0.361273
v 0.856721 0.116684 -0.391251
v 0.843266 0.015935 -0.385107
v 0.867293 0.058517 -0.396080
v 0.834440 0.000350 -0.245014
v 0.903682 0.116684 -0.265345
v 0.889489 0.015935 -0.261178
v 0.914833 0.058517 -0.268619
v 0.860816 0.000350 -0.123767
v 0.932246 0.116684 -0.134037
v 0.917605 0.015935 -0.131932
v 0.943750 0.058517 -0.135691
v 0.869668 0.000350 0.000000
v 0.941833 0.116684 0.000000
v 0.927041 0.015935 0.000000
v 0.953455 0.058517 0.000000
v 0.860816 0.000350 0.123767
v 0.932246 0.116684 0.134037
v 0.917605 0.015935 0.131932
v 0.943750 0.058517 0.135691
v 0.834440 0.000350 0.245014
v 0.903682 0.116684 0.265345
v 0.889489 0.015935 0.261178
v 0.914833 0.058517 0.268619
v 0.791078 0.000350 0.361273
v 0.856721 0.116684 0.391251
v 0.843266 0.015935 0.385107
v 0.867293 0.058517 0.396080
v 0.731611 0.000350 0.470178
v 0.792320 0.116684 0.509193
v 0.779877 0.015935 0.501196
v 0.802097 0.058517 0.515477
v 0.657251 0.000350 0.569511
v 0.711790 0.116684 0.616769
v 0.700611 0.015935 0.607083
v 0.720573 0.058517 0.624380
v 0.569511 0.000350 0.657251
v 0.616769 0.116684 0.711790
v 0.607083 0.015935 0.700611
v 0.624380 0.058517 0.720573
v 0.470178 0.000350 0.731611
v 0.509193 0.116684 0.792320
v 0.501196 0.015935 0.779877
v 0.515477 0.058517 0.802097
v 0.361273 0.000350 0.791078
v 0.391251 0.116684 0.856721
v 0.385107 0.015935 0.843266
v 0.396080 0.058517 0.867293
v 0.245014 0.000350 0.834440
v 0.265345 0.116684 0.903682
v 0.261178 0.015935 0.889489
v 0.268619 0.058517 0.914833
v 0.123767 0.000350 0.860816
v 0.134037 0.116684 0.932246
v 0.131932 0.015935 0.917605
v 0.135691 0.058517 0.943750
v 0.000000 0.000350 0.869668
v 0.000000 0.116684 0.941833
v 0.000000 0.015935 0.927041
v 0.000000 0.058517 0.953455
v -0.123767 0.000350 0.860816
v -0.134037 0.116684 0.932246
v -0.131932 0.015935 0.917605
v -0.135691 0.058517 0.943750
v -0.245014 0.000350 0.834440
v -0.265345 0.116684 0.903682
v -0.261178 0.015935 0.889489
v -0.268619 0.058517 0.914833
v -0.361273 0.000350 0.791078
v -0.391251 0.116684 0.856721
v -0.385107 0.015935 0.843266
v -0.396080 0.058517 0.867293
v -0.470178 0.000350 0.731611
v -0.509193 0.116684 0.792320
v -0.501196 0.015935 0.779877
v -0.515477 0.058517 0.802097
v -0.569511 0.000350 0.657251
v -0.616769 0.116684 0.711790
v -0.607083 0.015935 0.700611
v -0.624380 0.058517 0.720573
v -0.657251 0.000350 0.569511
v -0.711790 0.116684 0.616769
v -0.700611 0.015935 0.607083
v -0.720573 0.058517 0.624380
v -0.731611 0.000350 0.470178
v -0.792320 0.116684 0.509193
v -0.779877 0.015935 0.501196
v -0.802097 0.058517 0.515477
v -0.791078 0.000350 0.361273
v -0.856721 0.116684 0.391251
v -0.843266 0.015935 0.385107
v -0.867293 0.058517 0.396080
v -0.834440 0.000350 0.245014
v -0.903682 0.116684 0.265345
v -0.889489 0.015935 0.261178
v -0.914833 0.058517 0.268619
v -0.860816 0.000350 0.123767
v -0.932246 0.116684 0.134037
v -0.917605 0.015935 0.131932
v -0.943750 0.058517 0.135691
v -0.869668 0.000350 0.000000
v -0.941833 0.116684 0.000000
v -0.927041 0.015935 0.000000
v -0.953455 0.058517 0.000000
v -0.860816 0.000350 -0.123767
v -0.932246 0.116684 -0.134037
v -0.917605 0.015935 -0.131932
v -0.943750 0.058517 -0.135691
v -0.834440 0.000350 -0.245014
v -0.903682 0.116684 -0.265345
v -0.889489 0.015935 -0.261178
v -0.914833 0.058517 -0.268619
v -0.791078 0.000350 -0.361273
v -0.856721 0.116684 -0.391251
v -0.843266 0.015935 -0.385107
v -0.867293 0.058517 -0.396080
v -0.731611 0.000350 -0.470178
v -0.792320 0.116684 -0.509193
v -0.779877 0.015935 -0.501196
v -0.802097 0.058517 -0.515477
v -0.657251 0.000350 -0.569511
v -0.711790 0.116684 -0.616769
v -0.700611 0.015935 -0.607083
v -0.720573 0.058517 -0.624380
v -0.569511 0.000350 -0.657251
v -0.616769 0.116684 -0.711790
v -0.607083 0.015935 -0.700611
v -0.624380 0.058517 -0.720573
v -0.470178 0.000350 -0.731611
v -0.509193 0.116684 -0.792320
v -0.501196 0.015935 -0.779877
v -0.515477 0.058517 -0.802097
v -0.361273 0.000350 -0.791078
v -0.391251 0.116684 -0.856721
v -0.385107 0.015935 -0.843266
v -0.396080 0.058517 -0.867293
v -0.245014 0.000350 -0.834440
v -0.265345 0.116684 -0.903682
v -0.261178 0.015935 -0.889489
v -0.268619 0.058517 -0.914833
v -0.123767 0.000350 -0.860816
v -0.134037 0.116684 -0.932246
v -0.131932 0.015935 -0.917605
v -0.135691 0.058517 -0.943750
vn 0.0700 0.1955 -0.9782
vn 0.0607 -0.5262 -0.8482
vn 0.0187 -0.9649 -0.2621
vn 0.2085 0.1955 -0.9583
vn 0.1808 -0.5262 -0.8309
vn 0.0559 -0.9649 -0.2568
vn 0.3427 0.1955 -0.9189
vn 0.2972 -0.5262 -0.7968
vn 0.0918 -0.9649 -0.2462
vn 0.4700 0.1955 -0.8608
vn 0.4075 -0.5262 -0.7464
vn 0.1259 -0.9649 -0.2306
vn 0.5877 0.1955 -0.7851
vn 0.5096 -0.5262 -0.6808
vn 0.1575 -0.9649 -0.2104
vn 0.6935 0.1955 -0.6935
vn 0.6013 -0.5262 -0.6013
vn 0.1858 -0.9649 -0.1858
vn 0.7851 0.1955 -0.5877
vn 0.6808 -0.5262 -0.5096
vn 0.2104 -0.9649 -0.1575
vn 0.8608 0.1955 -0.4700
vn 0.7464 -0.5262 -0.4075
vn 0.2306 -0.9649 -0.1259
vn 0.9189 0.1955 -0.3427
vn 0.7968 -0.5262 -0.2972
vn 0.2462 -0.9649 -0.0918
vn 0.9583 0.1955 -0.2085
vn 0.8309 -0.5262 -0.1808
vn 0.2568 -0.9649 -0.0559
vn 0.9782 0.1955 -0.0700
vn 0.8482 -0.5262 -0.0607
vn 0.2621 -0.9649 -0.0187
vn 0.9782 0.1955 0.0700
vn 0.8482 -0.5262 0.0607
vn 0.2621 -0.9649 0.0187
vn 0.9583 0.1955 0.2085
vn 0.8309 -0.5262 0.1808
vn 0.2568 -0.9649 0.0559
vn 0.9189 0.1955 0.3427
vn 0.7968 -0.5262 0.2972
vn 0.2462 -0.9649 0.0918
vn 0.8608 0.1955 0.4700
vn 0.7464 -0.5262 0.4075
vn 0.2306 -0.9649 0.1259
vn 0.7851 0.1955 0.5877
vn 0.6808 -0.5262 0.5096
vn 0.2104 -0.9649 0.1575
vn 0.6935 0.1955 0.6935
vn 0.6013 -0.5262 0.6013
vn 0.1858 -0.9649 0.1858
vn 0.5877 0.1955 0.7851
vn 0.5096 -0.5262 0.6808
vn 0.1575 -0.9649 0.2104
vn 0.4700 0.1955 0.8608
vn 0.4075 -0.5262 0.7464
vn 0.1259 -0.9649 0.2306
vn 0.3427 0.1955 0.9189
vn 0.2972 -0.5262 0.7968
vn 0.0918 -0.9649 0.2462
vn 0.2085 0.1955 0.9583
vn 0.1808 -0.5262 0.8309
vn 0.0559 -0.9649 0.2568
vn 0.0700 0.1955 0.9782
vn 0.0607 -0.5262 0.8482
vn 0.0187 -0.9649 0.2621
vn -0.0700 0.1955 0.9782
vn -0.0607 -0.5262 0.8482
vn -0.0187 -0.9649 0.2621
vn -0.2085 0.1955 0.9583
vn -0.1808 -0.5262 0.8309
vn -0.0559 -0.9649 0.2568
vn -0.3427 0.1955 0.9189
vn -0.2972 -0.5262 0.7968
vn -0.0918 -0.9649 0.2462
vn -0.4700 0.1955 0.8608
vn -0.4075 -0.5262 0.7464
vn -0.1259 -0.9649 0.2306
vn -0.5877 0.1955 0.7851
vn -0.5096 -0.5262 0.6808
vn -0.1575 -0.9649 0.2104
vn -0.6935 0.1955 0.6935
vn -0.6013 -0.5262 0.6013
vn -0.1858 -0.9649 0.1858
vn -0.7851 0.1955 0.5877
vn -0.6808 -0.5262 0.5096
vn -0.2104 -0.9649 0.1575
vn -0.8608 0.1955 0.4700
vn -0.7464 -0.5262 0.4075
vn -0.2306 -0.9649 0.1259
vn -0.9189 0.1955 0.3427
vn -0.7968 -0.5262 0.2972
vn -0.2462 -0.9649 0.0918
vn -0.9583 0.1955 0.2085
vn -0.8309 -0.5262 0.1808
vn -0.2568 -0.9649 0.0559
vn -0.9782 0.1955 0.0700
vn -0.8482 -0.5262 0.0607
vn -0.2621 -0.9649 0.0187
vn -0.9782 0.1955 -0.0700
vn -0.8482 -0.5262 -0.0607
vn -0.2621 -0.9649 -0.0187
vn -0.9583 0.1955 -0.2085
vn -0.8309 -0.5262 -0.1808
vn -0.2568 -0.9649 -0.0559
vn -0.9189 0.1955 -0.3427
vn -0.7968 -0.5262 -0.2972
vn -0.2462 -0.9649 -0.0918
vn -0.8608 0.1955 -0.4700
vn -0.7464 -0.5262 -0.4075
vn -0.2306 -0.9649 -0.1259
vn -0.7851 0.1955 -0.5877
vn -0.6808 -0.5262 -0.5096
vn -0.2104 -0.9649 -0.1575
vn -0.6935 0.1955 -0.6935
vn -0.6013 -0.5262 -0.6013
vn -0.1858 -0.9649 -0.1858
vn -0.5877 0.1955 -0.7851
vn -0.5096 -0.5262 -0.6808
vn -0.1575 -0.9649 -0.2104
vn -0.4700 0.1955 -0.8608
vn -0.4075 -0.5262 -0.7464
vn -0.1259 -0.9649 -0.2306
vn -0.3427 0.1955 -0.9189
vn -0.2972 -0.5262 -0.7968
vn -0.0918 -0.9649 -0.2462
vn -0.2085 0.1955 -0.9583
vn -0.1808 -0.5262 -0.8309
vn -0.0559 -0.9649 -0.2568
vn -0.0700 0.1955 -0.9782
vn -0.0607 -0.5262 -0.8482
vn -0.0187 -0.9649 -0.2621
vn -0.0000 -1.0000 -0.0000
vn 0.0638 0.4463 -0.8926
vn -0.0638 0.4463 -0.8926
vn 0.1902 0.4463 -0.8744
vn 0.3127 0.4463 -0.8385
vn 0.4289 0.4463 -0.7854
vn 0.5363 0.4463 -0.7164
vn 0.6328 0.4463 -0.6328
vn 0.7164 0.4463 -0.5363
vn 0.7854 0.4463 -0.4289
vn 0.8385 0.4463 -0.3127
vn 0.8744 0.4463 -0.1902
vn 0.8926 0.4463 -0.0638
vn 0.8926 0.4463 0.0638
vn 0.8744 0.4463 0.1902
vn 0.8385 0.4463 0.3127
vn 0.7854 0.4463 0.4289
vn 0.7164 0.4463 0.5363
vn 0.6328 0.4463 0.6328
vn 0.5363 0.4463 0.7164
vn 0.4289 0.4463 0.7854
vn 0.3127 0.4463 0.8385
vn 0.1902 0.4463 0.8744
vn 0.0638 0.4463 0.8926
vn -0.0638 0.4463 0.8926
vn -0.1902 0.4463 0.8744
vn -0.3127 0.4463 0.8385
vn -0.4289 0.4463 0.7854
vn -0.5363 0.4463 0.7164
vn -0.6328 0.4463 0.6328
vn -0.7164 0.4463 0.5363
vn -0.7854 0.4463 0.4289
vn -0.8385 0.4463 0.3127
vn -0.8744 0.4463 0.1902
vn -0.8926 0.4463 0.0638
vn -0.8926 0.4463 -0.0638
vn -0.8744 0.4463 -0.1902
vn -0.8385 0.4463 -0.3127
vn -0.7854 0.4463 -0.4289
vn -0.7164 0.4463 -0.5363
vn -0.6328 0.4463 -0.6328
vn -0.5363 0.4463 -0.7164
vn -0.4289 0.4463 -0.7854
vn -0.3127 0.4463 -0.8385
vn -0.1902 0.4463 -0.8744
vt 0.250000 0.476040
vt 0.282169 0.473739
vt 0.284147 0.487501
vt 0.250000 0.489943
vt 0.750000 0.489943
vt 0.784148 0.487501
vt 0.781663 0.470225
vt 0.750000 0.472490
vt 0.779704 0.456596
vt 0.750000 0.458720
vt 0.313683 0.466884
vt 0.317600 0.480224
vt 0.817600 0.480224
vt 0.812683 0.463477
vt 0.808803 0.450266
vt 0.343900 0.455613
vt 0.349676 0.468260
vt 0.849676 0.468260
vt 0.842426 0.452384
vt 0.836706 0.439859
vt 0.372206 0.440157
vt 0.379723 0.451853
vt 0.879723 0.451853
vt 0.870288 0.437170
vt 0.862843 0.425587
vt 0.398025 0.420829
vt 0.407129 0.431337
vt 0.907129 0.431337
vt 0.895700 0.418147
vt 0.886683 0.407740
vt 0.420829 0.398025
vt 0.431337 0.407129
vt 0.931337 0.407129
vt 0.918147 0.395700
vt 0.907740 0.386683
vt 0.440157 0.372206
vt 0.451853 0.379723
vt 0.951853 0.379723
vt 0.937171 0.370287
vt 0.925587 0.362843
vt 0.455613 0.343900
vt 0.468260 0.349676
vt 0.968260 0.349676
vt 0.952384 0.342426
vt 0.939859 0.336706
vt 0.466884 0.313683
vt 0.480224 0.317600
vt 0.980224 0.317600
vt 0.963478 0.312683
vt 0.950266 0.308803
vt 0.473739 0.282169
vt 0.487501 0.284147
vt 0.987501 0.284147
vt 0.970226 0.281664
vt 0.956596 0.279704
vt 0.476040 0.250000
vt 0.489943 0.250000
vt 0.989943 0.250000
vt 0.972490 0.250000
vt 0.958720 0.250000
vt 0.473739 0.217831
vt 0.487501 0.215853
vt 0.987501 0.215853
vt 0.970226 0.218337
vt 0.956596 0.220296
vt 0.466884 0.186317
vt 0.480224 0.182400
vt 0.980224 0.182400
vt 0.963478 0.187317
vt 0.950266 0.191197
vt 0.455613 0.156100
vt 0.468260 0.150324
vt 0.968260 0.150324
vt 0.952384 0.157574
vt 0.939859 0.163294
vt 0.440157 0.127794
vt 0.451853 0.120277
vt 0.951853 0.120277
vt 0.937171 0.129713
vt 0.925587 0.137157
vt 0.420829 0.101975
vt 0.431337 0.092871
vt 0.931337 0.092871
vt 0.918147 0.104300
vt 0.907740 0.113317
vt 0.398025 0.079171
vt 0.407129 0.068663
vt 0.907129 0.068663
vt 0.895700 0.081853
vt 0.886683 0.092260
vt 0.372206 0.059843
vt 0.379723 0.048147
vt 0.879723 0.048147
vt 0.870287 0.062830
vt 0.862843 0.074413
vt 0.343900 0.044387
vt 0.349676 0.031740
vt 0.849676 0.031740
vt 0.842426 0.047616
vt 0.836706 0.060141
vt 0.313683 0.033116
vt 0.317600 0.019776
vt 0.817600 0.019776
vt 0.812683 0.036523
vt 0.808803 0.049734
vt 0.282169 0.026261
vt 0.284147 0.012499
vt 0.784148 0.012499
vt 0.781664 0.029775
vt 0.779704 0.043404
vt 0.250000 0.023960
vt 0.250000 0.010057
vt 0.750000 0.010057
vt 0.750000 0.027510
vt 0.750000 0.041280
vt 0.217831 0.026261
vt 0.215853 0.012499
vt 0.715853 0.012499
vt 0.718337 0.029775
vt 0.720296 0.043404
vt 0.186317 0.033116
vt 0.182400 0.019776
vt 0.682400 0.019776
vt 0.687317 0.036523
vt 0.691197 0.049734
vt 0.156100 0.044387
vt 0.150324 0.031740
vt 0.650324 0.031740
vt 0.657574 0.047616
vt 0.663294 0.060141
vt 0.127794 0.059843
vt 0.120277 0.048147
vt 0.620277 0.048147
vt 0.629713 0.062830
vt 0.637157 0.074413
vt 0.101975 0.079171
vt 0.092871 0.068663
vt 0.592871 0.068663
vt 0.604300 0.081853
vt 0.613317 0.092260
vt 0.079171 0.101975
vt 0.068663 0.092871
vt 0.568663 0.092871
vt 0.581854 0.104300
vt 0.592260 0.113317
vt 0.059843 0.127794
vt 0.048147 0.120277
vt 0.548147 0.120277
vt 0.562829 0.129713
vt 0.574413 0.137157
vt 0.044387 0.156100
vt 0.031740 0.150324
vt 0.531740 0.150324
vt 0.547616 0.157574
vt 0.560141 0.163294
vt 0.033116 0.186317
vt 0.019776 0.182400
vt 0.519776 0.182400
vt 0.536522 0.187317
vt 0.549734 0.191197
vt 0.026261 0.217831
vt 0.012499 0.215853
vt 0.512499 0.215853
vt 0.529775 0.218336
vt 0.543404 0.220296
vt 0.023960 0.250000
vt 0.010057 0.250000
vt 0.510057 0.250000
vt 0.527510 0.250000
vt 0.541280 0.250000
vt 0.026261 0.282169
vt 0.012499 0.284147
vt 0.512499 0.284147
vt 0.529775 0.281664
vt 0.543404 0.279704
vt 0.033116 0.313683
vt 0.019776 0.317600
vt 0.519776 0.317600
vt 0.536522 0.312683
vt 0.549734 0.308803
vt 0.044387 0.343900
vt 0.031740 0.349676
vt 0.531740 0.349676
vt 0.547616 0.342426
vt 0.560141 0.336706
vt 0.059843 0.372206
vt 0.048147 0.379723
vt 0.548147 0.379723
vt 0.562830 0.370287
vt 0.574413 0.362843
vt 0.079171 0.398025
vt 0.068663 0.407129
vt 0.568663 0.407129
vt 0.581853 0.395700
vt 0.592260 0.386683
vt 0.101975 0.420829
vt 0.092871 0.431337
vt 0.592871 0.431337
vt 0.604300 0.418147
vt 0.613317 0.407740
vt 0.127794 0.440157
vt 0.120277 0.451853
vt 0.620277 0.451853
vt 0.629713 0.437170
vt 0.637157 0.425587
vt 0.156100 0.455613
vt 0.150324 0.468260
vt 0.650324 0.468260
vt 0.657574 0.452384
vt 0.663294 0.439859
vt 0.186317 0.466884
vt 0.182400 0.480224
vt 0.682400 0.480224
vt 0.687317 0.463477
vt 0.691197 0.450266
vt 0.217831 0.473739
vt 0.215853 0.487501
vt 0.715852 0.487501
vt 0.718336 0.470225
vt 0.720296 0.456596
vt 0.250000 0.250000
s 0
f 3/1/1 7/2/1 9/3/1 5/4/1
f 5/5/2 9/6/2 8/7/2 4/8/2
f 4/8/3 8/7/3 6/9/3 2/10/3
f 7/2/4 11/11/4 13/12/4 9/3/4
f 9/6/5 13/13/5 12/14/5 8/7/5
f 8/7/6 12/14/6 10/15/6 6/9/6
f 11/11/7 15/16/7 17/17/7 13/12/7
f 13/13/8 17/18/8 16/19/8 12/14/8
f 12/14/9 16/19/9 14/20/9 10/15/9
f 15/16/10 19/21/10 21/22/10 17/17/10
f 17/18/11 21/23/11 20/24/11 16/19/11
f 16/19/12 20/24/12 18/25/12 14/20/12
f 19/21/13 23/26/13 25/27/13 21/22/13
f 21/23/14 25/28/14 24/29/14 20/24/14
f 20/24/15 24/29/15 22/30/15 18/25/15
f 23/26/16 27/31/16 29/32/16 25/27/16
f 25/28/17 29/33/17 28/34/17 24/29/17
f 24/29/18 28/34/18 26/35/18 22/30/18
f 27/31/19 31/36/19 33/37/19 29/32/19
f 29/33/20 33/38/20 32/39/20 28/34/20
f 28/34/21 32/39/21 30/40/21 26/35/21
f 31/36/22 35/41/22 37/42/22 33/37/22
f 33/38/23 37/43/23 36/44/23 32/39/23
f 32/39/24 36/44/24 34/45/24 30/40/24
f 35/41/25 39/46/25 41/47/25 37/42/25
f 37/43/26 41/48/26 40/49/26 36/44/26
f 36/44/27 40/49/27 38/50/27 34/45/27
f 39/46/28 43/51/28 45/52/28 41/47/28
f 41/48/29 45/53/29 44/54/29 40/49/29
f 40/49/30 44/54/30 42/55/30 38/50/30
f 43/51/31 47/56/31 49/57/31 45/52/31
f 45/53/32 49/58/32 48/59/32 44/54/32
f 44/54/33 48/59/33 46/60/33 42/55/33
f 47/56/34 51/61/34 53/62/34 49/57/34
f 49/58/35 53/63/35 52/64/35 48/59/35
f 48/59/36 52/64/36 50/65/36 46/60/36
f 51/61/37 55/66/37 57/67/37 53/62/37
f 53/63/38 57/68/38 56/69/38 52/64/38
f 52/64/39 56/69/39 54/70/39 50/65/39
f 55/66/40 59/71/40 61/72/40 57/67/40
f 57/68/41 61/73/41 60/74/41 56/69/41
f 56/69/42 60/74/42 58/75/42 54/70/42
f 59/71/43 63/76/43 65/77/43 61/72/43
f 61/73/44 65/78/44 64/79/44 60/74/44
f 60/74/45 64/79/45 62/80/45 58/75/45
f 63/76/46 67/81/46 69/82/46 65/77/46
f 65/78/47 69/83/47 68/84/47 64/79/47
f 64/79/48 68/84/48 66/85/48 62/80/48
f 67/81/49 71/86/49 73/87/49 69/82/49
f 69/83/50 73/88/50 72/89/50 68/84/50
f 68/84/51 72/89/51 70/90/51 66/85/51
f 71/86/52 75/91/52 77/92/52 73/87/52
f 73/88/53 77/93/53 76/94/53 72/89/53
f 72/89/54 76/94/54 74/95/54 70/90/54
f 75/91/55 79/96/55 81/97/55 77/92/55
f 77/93/56 81/98/56 80/99/56 76/94/56
f 76/94/57 80/99/57 78/100/57 74/95/57
f 79/96/58 83/101/58 85/102/58 81/97/58
f 81/98/59 85/103/59 84/104/59 80/99/59
f 80/99/60 84/104/60 82/105/60 78/100/60
f 83/101/61 87/106/61 89/107/61 85/102/61
f 85/103/62 89/108/62 88/109/62 84/104/62
f 84/104/63 88/109/63 86/110/63 82/105/63
f 87/106/64 91/111/64 93/112/64 89/107/64
f 89/108/65 93/113/65 92/114/65 88/109/65
f 88/109/66 92/114/66 90/115/66 86/110/66
f 91/111/67 95/116/67 97/117/67 93/112/67
f 93/113/68 97/118/68 96/119/68 92/114/68
f 92/114/69 96/119/69 94/120/69 90/115/69
f 95/116/70 99/121/70 101/122/70 97/117/70
f 97/118/71 101/123/71 100/124/71 96/119/71
f 96/119/72 100/124/72 98/125/72 94/120/72
f 99/121/73 103/126/73 105/127/73 101/122/73
f 101/123/74 105/128/74 104/129/74 100/124/74
f 100/124/75 104/129/75 102/130/75 98/125/75
f 103/126/76 107/131/76 109/132/76 105/127/76
f 105/128/77 109/133/77 108/134/77 104/129/77
f 104/129/78 108/134/78 106/135/78 102/130/78
f 107/131/79 111/136/79 113/137/79 109/132/79
f 109/133/80 113/138/80 112/139/80 108/134/80
f 108/134/81 112/139/81 110/140/81 106/135/81
f 111/136/82 115/141/82 117/142/82 113/137/82
f 113/138/83 117/143/83 116/144/83 112/139/83
f 112/139/84 116/144/84 114/145/84 110/140/84
f 115/141/85 119/146/85 121/147/85 117/142/85
f 117/143/86 121/148/86 120/149/86 116/144/86
f 116/144/87 120/149/87 118/150/87 114/145/87
f 119/146/88 123/151/88 125/152/88 121/147/88
f 121/148/89 125/153/89 124/154/89 120/149/89
f 120/149/90 124/154/90 122/155/90 118/150/90
f 123/151/91 127/156/91 129/157/91 125/152/91
f 125/153/92 129/158/92 128/159/92 124/154/92
f 124/154/93 128/159/93 126/160/93 122/155/93
f 127/156/94 131/161/94 133/162/94 129/157/94
f 129/158/95 133/163/95 132/164/95 128/159/95
f 128/159/96 132/164/96 130/165/96 126/160/96
f 131/161/97 135/166/97 137/167/97 133/162/97
f 133/163/98 137/168/98 136/169/98 132/164/98
f 132/164/99 136/169/99 134/170/99 130/165/99
f 135/166/100 139/171/100 141/172/100 137/167/100
f 137/168/101 141/173/101 140/174/101 136/169/101
f 136/169/102 140/174/102 138/175/102 134/170/102
f 139/171/103 143/176/103 145/177/103 141/172/103
f 141/173/104 145/178/104 144/179/104 140/174/104
f 140/174/105 144/179/105 142/180/105 138/175/105
f 143/176/106 147/181/106 149/182/106 145/177/106
f 145/178/107 149/183/107 148/184/107 144/179/107
f 144/179/108 148/184/108 146/185/108 142/180/108
f 147/181/109 151/186/109 153/187/109 149/182/109
f 149/183/110 153/188/110 152/189/110 148/184/110
f 148/184/111 152/189/111 150/190/111 146/185/111
f 151/186/112 155/191/112 157/192/112 153/187/112
f 153/188/113 157/193/113 156/194/113 152/189/113
f 152/189/114 156/194/114 154/195/114 150/190/114
f 155/191/115 159/196/115 161/197/115 157/192/115
f 157/193/116 161/198/116 160/199/116 156/194/116
f 156/194/117 160/199/117 158/200/117 154/195/117
f 159/196/118 163/201/118 165/202/118 161/197/118
f 161/198/119 165/203/119 164/204/119 160/199/119
f 160/199/120 164/204/120 162/205/120 158/200/120
f 163/201/121 167/206/121 169/207/121 165/202/121
f 165/203/122 169/208/122 168/209/122 164/204/122
f 164/204/123 168/209/123 166/210/123 162/205/123
f 167/206/124 171/211/124 173/212/124 169/207/124
f 169/208/125 173/213/125 172/214/125 168/209/125
f 168/209/126 172/214/126 170/215/126 166/210/126
f 171/211/127 175/216/127 177/217/127 173/212/127
f 173/213/128 177/218/128 176/219/128 172/214/128
f 172/214/129 176/219/129 174/220/129 170/215/129
f 175/216/130 3/1/130 5/4/130 177/217/130
f 177/218/131 5/5/131 4/8/131 176/219/131
f 176/219/132 4/8/132 2/10/132 174/220/132
f 2/10/133 6/9/133 10/15/133 14/20/133 18/25/133 22/30/133 26/35/133 30/40/133 34/45/133 38/50/133 42/55/133 46/60/133 50/65/133 54/70/133 58/75/133 62/80/133 66/85/133 70/90/133 74/95/133 78/100/133 82/105/133 86/110/133 90/115/133 94/120/133 98/125/133 102/130/133 106/135/133 110/140/133 114/145/133 118/150/133 122/155/133 126/160/133 130/165/133 134/170/133 138/175/133 142/180/133 146/185/133 150/190/133 154/195/133 158/200/133 162/205/133 166/210/133 170/215/133 174/220/133
f 3/1/134 1/221/134 7/2/134
f 175/216/135 1/221/135 3/1/135
f 7/2/136 1/221/136 11/11/136
f 11/11/137 1/221/137 15/16/137
f 15/16/138 1/221/138 19/21/138
f 19/21/139 1/221/139 23/26/139
f 23/26/140 1/221/140 27/31/140
f 27/31/141 1/221/141 31/36/141
f 31/36/142 1/221/142 35/41/142
f 35/41/143 1/221/143 39/46/143
f 39/46/144 1/221/144 43/51/144
f 43/51/145 1/221/145 47/56/145
f 47/56/146 1/221/146 51/61/146
f 51/61/147 1/221/147 55/66/147
f 55/66/148 1/221/148 59/71/148
f 59/71/149 1/221/149 63/76/149
f 63/76/150 1/221/150 67/81/150
f 67/81/151 1/221/151 71/86/151
f 71/86/152 1/221/152 75/91/152
f 75/91/153 1/221/153 79/96/153
f 79/96/154 1/221/154 83/101/154
f 83/101/155 1/221/155 87/106/155
f 87/106/156 1/221/156 91/111/156
f 91/111/157 1/221/157 95/116/157
f 95/116/158 1/221/158 99/121/158
f 99/121/159 1/221/159 103/126/159
f 103/126/160 1/221/160 107/131/160
f 107/131/161 1/221/161 111/136/161
f 111/136/162 1/221/162 115/141/162
f 115/141/163 1/221/163 119/146/163
f 119/146/164 1/221/164 123/151/164
f 123/151/165 1/221/165 127/156/165
f 127/156/166 1/221/166 131/161/166
f 131/161/167 1/221/167 135/166/167
f 135/166/168 1/221/168 139/171/168
f 139/171/169 1/221/169 143/176/169
f 143/176/170 1/221/170 147/181/170
f 147/181/171 1/221/171 151/186/171
f 151/186/172 1/221/172 155/191/172
f 155/191/173 1/221/173 159/196/173
f 159/196/174 1/221/174 163/201/174
f 163/201/175 1/221/175 167/206/175
f 167/206/176 1/221/176 171/211/176
f 171/211/177 1/221/177 175/216/177
